<?xml version="1.0" encoding="UTF-8" standalone="no"?>
<!DOCTYPE svg PUBLIC "-//W3C//DTD SVG 1.1//EN"
 "http://www.w3.org/Graphics/SVG/1.1/DTD/svg11.dtd">
<!-- Generated by graphviz version 14.1.2 (0)
 -->
<!-- Title: Exponential Pages: 1 -->
<svg width="82pt" height="142pt"
 viewBox="0.00 0.00 82.00 142.00" xmlns="http://www.w3.org/2000/svg" xmlns:xlink="http://www.w3.org/1999/xlink">
<g id="graph0" class="graph" transform="scale(1 1) rotate(0) translate(4 138.25)">
<title>Exponential</title>
<!-- Node1 -->
<g id="Node000001" class="node">
<title>Node1</title>
<g id="a_Node000001"><a xlink:title="Representa um fluxo com comportamento exponencial.">
<polygon fill="#999999" stroke="#666666" points="73.75,-20.75 0,-20.75 0,0 73.75,0 73.75,-20.75"/>
<text xml:space="preserve" text-anchor="middle" x="36.88" y="-7.25" font-family="Helvetica,sans-Serif" font-size="10.00">Exponential</text>
</a>
</g>
</g>
<!-- Node2 -->
<g id="Node000002" class="node">
<title>Node2</title>
<g id="a_Node000002"><a xlink:href="classFlowImpl.html" target="_top" xlink:title="Implementação base de um fluxo da simulação.">
<polygon fill="white" stroke="#666666" points="67.38,-77.5 6.37,-77.5 6.37,-56.75 67.38,-56.75 67.38,-77.5"/>
<text xml:space="preserve" text-anchor="middle" x="36.88" y="-64" font-family="Helvetica,sans-Serif" font-size="10.00">FlowImpl</text>
</a>
</g>
</g>
<!-- Node2&#45;&gt;Node1 -->
<g id="edge1_Node000001_Node000002" class="edge">
<title>Node2&#45;&gt;Node1</title>
<g id="a_edge1_Node000001_Node000002"><a xlink:title=" ">
<path fill="none" stroke="#63b8ff" d="M36.88,-44.88C36.88,-36.66 36.88,-27.68 36.88,-21.08"/>
<polygon fill="#63b8ff" stroke="#63b8ff" points="33.38,-44.82 36.88,-54.82 40.38,-44.82 33.38,-44.82"/>
</a>
</g>
</g>
<!-- Node3 -->
<g id="Node000003" class="node">
<title>Node3</title>
<g id="a_Node000003"><a xlink:href="classFlow.html" target="_top" xlink:title="Interface que define um fluxo da simulação.">
<polygon fill="white" stroke="#666666" points="56.5,-134.25 17.25,-134.25 17.25,-113.5 56.5,-113.5 56.5,-134.25"/>
<text xml:space="preserve" text-anchor="middle" x="36.88" y="-120.75" font-family="Helvetica,sans-Serif" font-size="10.00">Flow</text>
</a>
</g>
</g>
<!-- Node3&#45;&gt;Node2 -->
<g id="edge2_Node000002_Node000003" class="edge">
<title>Node3&#45;&gt;Node2</title>
<g id="a_edge2_Node000002_Node000003"><a xlink:title=" ">
<path fill="none" stroke="#63b8ff" d="M36.88,-101.63C36.88,-93.41 36.88,-84.43 36.88,-77.83"/>
<polygon fill="#63b8ff" stroke="#63b8ff" points="33.38,-101.57 36.88,-111.57 40.38,-101.57 33.38,-101.57"/>
</a>
</g>
</g>
</g>
</svg>
