<?xml version="1.0" encoding="UTF-8" standalone="no"?>
<!DOCTYPE svg PUBLIC "-//W3C//DTD SVG 1.1//EN"
 "http://www.w3.org/Graphics/SVG/1.1/DTD/svg11.dtd">
<!-- Generated by graphviz version 14.1.2 (0)
 -->
<!-- Title: test/funcional/Complex.hpp Pages: 1 -->
<svg width="163pt" height="199pt"
 viewBox="0.00 0.00 163.00 199.00" xmlns="http://www.w3.org/2000/svg" xmlns:xlink="http://www.w3.org/1999/xlink">
<g id="graph0" class="graph" transform="scale(1 1) rotate(0) translate(4 195)">
<title>test/funcional/Complex.hpp</title>
<!-- Node1 -->
<g id="Node000001" class="node">
<title>Node1</title>
<g id="a_Node000001"><a xlink:title=" ">
<polygon fill="#999999" stroke="#666666" points="150.25,-191 0,-191 0,-170.25 150.25,-170.25 150.25,-191"/>
<text xml:space="preserve" text-anchor="middle" x="75.12" y="-177.5" font-family="Helvetica,sans-Serif" font-size="10.00">test/funcional/Complex.hpp</text>
</a>
</g>
</g>
<!-- Node2 -->
<g id="Node000002" class="node">
<title>Node2</title>
<g id="a_Node000002"><a xlink:href="FlowImpl_8hpp.html" target="_top" xlink:title="Implementação concreta da interface Flow.">
<polygon fill="white" stroke="#666666" points="133.75,-134.25 16.5,-134.25 16.5,-113.5 133.75,-113.5 133.75,-134.25"/>
<text xml:space="preserve" text-anchor="middle" x="75.12" y="-120.75" font-family="Helvetica,sans-Serif" font-size="10.00">../../src/FlowImpl.hpp</text>
</a>
</g>
</g>
<!-- Node1&#45;&gt;Node2 -->
<g id="edge1_Node000001_Node000002" class="edge">
<title>Node1&#45;&gt;Node2</title>
<g id="a_edge1_Node000001_Node000002"><a xlink:title=" ">
<path fill="none" stroke="#63b8ff" d="M75.12,-169.84C75.12,-163.22 75.12,-154.22 75.12,-146.02"/>
<polygon fill="#63b8ff" stroke="#63b8ff" points="78.63,-146.09 75.13,-136.09 71.63,-146.09 78.63,-146.09"/>
</a>
</g>
</g>
<!-- Node3 -->
<g id="Node000003" class="node">
<title>Node3</title>
<g id="a_Node000003"><a xlink:href="Flow_8hpp.html" target="_top" xlink:title="Interface abstrata que representa um fluxo entre sistemas.">
<polygon fill="white" stroke="#666666" points="62.88,-77.5 3.38,-77.5 3.38,-56.75 62.88,-56.75 62.88,-77.5"/>
<text xml:space="preserve" text-anchor="middle" x="33.12" y="-64" font-family="Helvetica,sans-Serif" font-size="10.00">Flow.hpp</text>
</a>
</g>
</g>
<!-- Node2&#45;&gt;Node3 -->
<g id="edge2_Node000002_Node000003" class="edge">
<title>Node2&#45;&gt;Node3</title>
<g id="a_edge2_Node000002_Node000003"><a xlink:title=" ">
<path fill="none" stroke="#63b8ff" d="M67.62,-113.09C62,-105.77 54.16,-95.54 47.37,-86.69"/>
<polygon fill="#63b8ff" stroke="#63b8ff" points="50.35,-84.83 41.49,-79.03 44.8,-89.09 50.35,-84.83"/>
</a>
</g>
</g>
<!-- Node5 -->
<g id="Node000005" class="node">
<title>Node5</title>
<g id="a_Node000005"><a xlink:href="System_8hpp.html" target="_top" xlink:title="Interface abstrata que representa um sistema do simulador.">
<polygon fill="white" stroke="#666666" points="155,-77.5 81.25,-77.5 81.25,-56.75 155,-56.75 155,-77.5"/>
<text xml:space="preserve" text-anchor="middle" x="118.12" y="-64" font-family="Helvetica,sans-Serif" font-size="10.00">System.hpp</text>
</a>
</g>
</g>
<!-- Node2&#45;&gt;Node5 -->
<g id="edge4_Node000002_Node000005" class="edge">
<title>Node2&#45;&gt;Node5</title>
<g id="a_edge4_Node000002_Node000005"><a xlink:title=" ">
<path fill="none" stroke="#63b8ff" d="M82.81,-113.09C88.56,-105.77 96.59,-95.54 103.54,-86.69"/>
<polygon fill="#63b8ff" stroke="#63b8ff" points="106.15,-89.05 109.57,-79.02 100.64,-84.72 106.15,-89.05"/>
</a>
</g>
</g>
<!-- Node4 -->
<g id="Node000004" class="node">
<title>Node4</title>
<g id="a_Node000004"><a xlink:title=" ">
<polygon fill="#e0e0e0" stroke="#999999" points="97,-20.75 53.25,-20.75 53.25,0 97,0 97,-20.75"/>
<text xml:space="preserve" text-anchor="middle" x="75.12" y="-7.25" font-family="Helvetica,sans-Serif" font-size="10.00">string</text>
</a>
</g>
</g>
<!-- Node3&#45;&gt;Node4 -->
<g id="edge3_Node000003_Node000004" class="edge">
<title>Node3&#45;&gt;Node4</title>
<g id="a_edge3_Node000003_Node000004"><a xlink:title=" ">
<path fill="none" stroke="#63b8ff" d="M40.63,-56.34C46.25,-49.02 54.09,-38.79 60.88,-29.94"/>
<polygon fill="#63b8ff" stroke="#63b8ff" points="63.45,-32.34 66.76,-22.28 57.9,-28.08 63.45,-32.34"/>
</a>
</g>
</g>
<!-- Node5&#45;&gt;Node4 -->
<g id="edge5_Node000005_Node000004" class="edge">
<title>Node5&#45;&gt;Node4</title>
<g id="a_edge5_Node000005_Node000004"><a xlink:title=" ">
<path fill="none" stroke="#63b8ff" d="M110.44,-56.34C104.69,-49.02 96.66,-38.79 89.71,-29.94"/>
<polygon fill="#63b8ff" stroke="#63b8ff" points="92.61,-27.97 83.68,-22.27 87.1,-32.3 92.61,-27.97"/>
</a>
</g>
</g>
</g>
</svg>
