<?xml version="1.0" encoding="UTF-8" standalone="no"?>
<!DOCTYPE svg PUBLIC "-//W3C//DTD SVG 1.1//EN"
 "http://www.w3.org/Graphics/SVG/1.1/DTD/svg11.dtd">
<!-- Generated by graphviz version 14.1.2 (0)
 -->
<!-- Title: test/funcional/funcional_test.cpp Pages: 1 -->
<svg width="674pt" height="269pt"
 viewBox="0.00 0.00 674.00 269.00" xmlns="http://www.w3.org/2000/svg" xmlns:xlink="http://www.w3.org/1999/xlink">
<g id="graph0" class="graph" transform="scale(1 1) rotate(0) translate(4 264.5)">
<title>test/funcional/funcional_test.cpp</title>
<!-- Node1 -->
<g id="Node000001" class="node">
<title>Node1</title>
<g id="a_Node000001"><a xlink:title=" ">
<polygon fill="#999999" stroke="#666666" points="463.38,-260.5 332.62,-260.5 332.62,-227 463.38,-227 463.38,-260.5"/>
<text xml:space="preserve" text-anchor="start" x="340.62" y="-247" font-family="Helvetica,sans-Serif" font-size="10.00">test/funcional/funcional</text>
<text xml:space="preserve" text-anchor="middle" x="398" y="-234.25" font-family="Helvetica,sans-Serif" font-size="10.00">_test.cpp</text>
</a>
</g>
</g>
<!-- Node2 -->
<g id="Node000002" class="node">
<title>Node2</title>
<g id="a_Node000002"><a xlink:href="funcional__test_8hpp.html" target="_top" xlink:title="Arquivo contendo as assinaturas dos testes funcionais da simulação.">
<polygon fill="white" stroke="#666666" points="106,-191 0,-191 0,-170.25 106,-170.25 106,-191"/>
<text xml:space="preserve" text-anchor="middle" x="53" y="-177.5" font-family="Helvetica,sans-Serif" font-size="10.00">funcional_test.hpp</text>
</a>
</g>
</g>
<!-- Node1&#45;&gt;Node2 -->
<g id="edge1_Node000001_Node000002" class="edge">
<title>Node1&#45;&gt;Node2</title>
<g id="a_edge1_Node000001_Node000002"><a xlink:title=" ">
<path fill="none" stroke="#63b8ff" d="M332.3,-231.11C270.55,-220.17 178.7,-203.9 117.38,-193.03"/>
<polygon fill="#63b8ff" stroke="#63b8ff" points="118.25,-189.63 107.79,-191.33 117.03,-196.52 118.25,-189.63"/>
</a>
</g>
</g>
<!-- Node3 -->
<g id="Node000003" class="node">
<title>Node3</title>
<g id="a_Node000003"><a xlink:href="Model_8hpp.html" target="_top" xlink:title=" ">
<polygon fill="white" stroke="#666666" points="226.12,-191 123.88,-191 123.88,-170.25 226.12,-170.25 226.12,-191"/>
<text xml:space="preserve" text-anchor="middle" x="175" y="-177.5" font-family="Helvetica,sans-Serif" font-size="10.00">../../src/Model.hpp</text>
</a>
</g>
</g>
<!-- Node1&#45;&gt;Node3 -->
<g id="edge2_Node000001_Node000003" class="edge">
<title>Node1&#45;&gt;Node3</title>
<g id="a_edge2_Node000001_Node000003"><a xlink:title=" ">
<path fill="none" stroke="#63b8ff" d="M338.83,-226.53C302.19,-216.49 255.81,-203.78 221.76,-194.44"/>
<polygon fill="#63b8ff" stroke="#63b8ff" points="222.75,-191.08 212.18,-191.82 220.9,-197.83 222.75,-191.08"/>
</a>
</g>
</g>
<!-- Node6 -->
<g id="Node000006" class="node">
<title>Node6</title>
<g id="a_Node000006"><a xlink:href="Exponential_8hpp.html" target="_top" xlink:title="Declaração da classe Exponential.">
<polygon fill="white" stroke="#666666" points="339.38,-191 244.62,-191 244.62,-170.25 339.38,-170.25 339.38,-191"/>
<text xml:space="preserve" text-anchor="middle" x="292" y="-177.5" font-family="Helvetica,sans-Serif" font-size="10.00">Exponential.hpp</text>
</a>
</g>
</g>
<!-- Node1&#45;&gt;Node6 -->
<g id="edge5_Node000001_Node000006" class="edge">
<title>Node1&#45;&gt;Node6</title>
<g id="a_edge5_Node000001_Node000006"><a xlink:title=" ">
<path fill="none" stroke="#63b8ff" d="M369.87,-226.53C353.97,-217.36 334.21,-205.97 318.58,-196.95"/>
<polygon fill="#63b8ff" stroke="#63b8ff" points="320.7,-194.13 310.29,-192.17 317.2,-200.2 320.7,-194.13"/>
</a>
</g>
</g>
<!-- Node10 -->
<g id="Node000010" class="node">
<title>Node10</title>
<g id="a_Node000010"><a xlink:href="Logistic_8hpp.html" target="_top" xlink:title=" ">
<polygon fill="white" stroke="#666666" points="531.25,-191 456.75,-191 456.75,-170.25 531.25,-170.25 531.25,-191"/>
<text xml:space="preserve" text-anchor="middle" x="494" y="-177.5" font-family="Helvetica,sans-Serif" font-size="10.00">Logistic.hpp</text>
</a>
</g>
</g>
<!-- Node1&#45;&gt;Node10 -->
<g id="edge12_Node000001_Node000010" class="edge">
<title>Node1&#45;&gt;Node10</title>
<g id="a_edge12_Node000001_Node000010"><a xlink:title=" ">
<path fill="none" stroke="#63b8ff" d="M423.47,-226.53C437.6,-217.54 455.09,-206.4 469.12,-197.47"/>
<polygon fill="#63b8ff" stroke="#63b8ff" points="470.79,-200.55 477.35,-192.23 467.03,-194.65 470.79,-200.55"/>
</a>
</g>
</g>
<!-- Node11 -->
<g id="Node000011" class="node">
<title>Node11</title>
<g id="a_Node000011"><a xlink:href="Complex_8hpp.html" target="_top" xlink:title=" ">
<polygon fill="white" stroke="#666666" points="438.25,-191 357.75,-191 357.75,-170.25 438.25,-170.25 438.25,-191"/>
<text xml:space="preserve" text-anchor="middle" x="398" y="-177.5" font-family="Helvetica,sans-Serif" font-size="10.00">Complex.hpp</text>
</a>
</g>
</g>
<!-- Node1&#45;&gt;Node11 -->
<g id="edge15_Node000001_Node000011" class="edge">
<title>Node1&#45;&gt;Node11</title>
<g id="a_edge15_Node000001_Node000011"><a xlink:title=" ">
<path fill="none" stroke="#63b8ff" d="M398,-226.69C398,-219.35 398,-210.57 398,-202.71"/>
<polygon fill="#63b8ff" stroke="#63b8ff" points="401.5,-202.98 398,-192.98 394.5,-202.98 401.5,-202.98"/>
</a>
</g>
</g>
<!-- Node12 -->
<g id="Node000012" class="node">
<title>Node12</title>
<g id="a_Node000012"><a xlink:title=" ">
<polygon fill="#e0e0e0" stroke="#999999" points="596.38,-191 549.62,-191 549.62,-170.25 596.38,-170.25 596.38,-191"/>
<text xml:space="preserve" text-anchor="middle" x="573" y="-177.5" font-family="Helvetica,sans-Serif" font-size="10.00">cmath</text>
</a>
</g>
</g>
<!-- Node1&#45;&gt;Node12 -->
<g id="edge17_Node000001_Node000012" class="edge">
<title>Node1&#45;&gt;Node12</title>
<g id="a_edge17_Node000001_Node000012"><a xlink:title=" ">
<path fill="none" stroke="#63b8ff" d="M444.44,-226.53C474.03,-216.19 511.73,-203.03 538.64,-193.63"/>
<polygon fill="#63b8ff" stroke="#63b8ff" points="539.74,-196.95 548.02,-190.35 537.43,-190.34 539.74,-196.95"/>
</a>
</g>
</g>
<!-- Node13 -->
<g id="Node000013" class="node">
<title>Node13</title>
<g id="a_Node000013"><a xlink:title=" ">
<polygon fill="#e0e0e0" stroke="#999999" points="665.62,-191 614.38,-191 614.38,-170.25 665.62,-170.25 665.62,-191"/>
<text xml:space="preserve" text-anchor="middle" x="640" y="-177.5" font-family="Helvetica,sans-Serif" font-size="10.00">cassert</text>
</a>
</g>
</g>
<!-- Node1&#45;&gt;Node13 -->
<g id="edge18_Node000001_Node000013" class="edge">
<title>Node1&#45;&gt;Node13</title>
<g id="a_edge18_Node000001_Node000013"><a xlink:title=" ">
<path fill="none" stroke="#63b8ff" d="M463.8,-226.6C501.89,-217.18 551.02,-204.91 603.19,-191.44"/>
<polygon fill="#63b8ff" stroke="#63b8ff" points="603.75,-194.91 612.55,-189.02 602,-188.13 603.75,-194.91"/>
</a>
</g>
</g>
<!-- Node4 -->
<g id="Node000004" class="node">
<title>Node4</title>
<g id="a_Node000004"><a xlink:title=" ">
<polygon fill="#e0e0e0" stroke="#999999" points="365.88,-20.75 322.12,-20.75 322.12,0 365.88,0 365.88,-20.75"/>
<text xml:space="preserve" text-anchor="middle" x="344" y="-7.25" font-family="Helvetica,sans-Serif" font-size="10.00">string</text>
</a>
</g>
</g>
<!-- Node3&#45;&gt;Node4 -->
<g id="edge3_Node000003_Node000004" class="edge">
<title>Node3&#45;&gt;Node4</title>
<g id="a_edge3_Node000003_Node000004"><a xlink:title=" ">
<path fill="none" stroke="#63b8ff" d="M175.7,-170.21C177.12,-156.53 181.4,-130.92 194,-113.5 224.25,-71.7 277.19,-41.59 311.4,-25.31"/>
<polygon fill="#63b8ff" stroke="#63b8ff" points="312.81,-28.52 320.43,-21.15 309.88,-22.16 312.81,-28.52"/>
</a>
</g>
</g>
<!-- Node5 -->
<g id="Node000005" class="node">
<title>Node5</title>
<g id="a_Node000005"><a xlink:title=" ">
<polygon fill="#e0e0e0" stroke="#999999" points="249.38,-134.25 202.62,-134.25 202.62,-113.5 249.38,-113.5 249.38,-134.25"/>
<text xml:space="preserve" text-anchor="middle" x="226" y="-120.75" font-family="Helvetica,sans-Serif" font-size="10.00">vector</text>
</a>
</g>
</g>
<!-- Node3&#45;&gt;Node5 -->
<g id="edge4_Node000003_Node000005" class="edge">
<title>Node3&#45;&gt;Node5</title>
<g id="a_edge4_Node000003_Node000005"><a xlink:title=" ">
<path fill="none" stroke="#63b8ff" d="M184.12,-169.84C191.08,-162.36 200.87,-151.86 209.23,-142.88"/>
<polygon fill="#63b8ff" stroke="#63b8ff" points="211.67,-145.39 215.93,-135.69 206.55,-140.62 211.67,-145.39"/>
</a>
</g>
</g>
<!-- Node6&#45;&gt;Node4 -->
<g id="edge11_Node000006_Node000004" class="edge">
<title>Node6&#45;&gt;Node4</title>
<g id="a_edge11_Node000006_Node000004"><a xlink:title=" ">
<path fill="none" stroke="#63b8ff" d="M291.13,-169.89C289.61,-148.45 288.07,-95.94 305,-56.75 309.49,-46.36 317.22,-36.59 324.63,-28.8"/>
<polygon fill="#63b8ff" stroke="#63b8ff" points="326.89,-31.48 331.58,-21.97 321.99,-26.48 326.89,-31.48"/>
</a>
</g>
</g>
<!-- Node7 -->
<g id="Node000007" class="node">
<title>Node7</title>
<g id="a_Node000007"><a xlink:href="FlowImpl_8hpp.html" target="_top" xlink:title="Implementação concreta da interface Flow.">
<polygon fill="white" stroke="#666666" points="456.62,-134.25 339.38,-134.25 339.38,-113.5 456.62,-113.5 456.62,-134.25"/>
<text xml:space="preserve" text-anchor="middle" x="398" y="-120.75" font-family="Helvetica,sans-Serif" font-size="10.00">../../src/FlowImpl.hpp</text>
</a>
</g>
</g>
<!-- Node6&#45;&gt;Node7 -->
<g id="edge6_Node000006_Node000007" class="edge">
<title>Node6&#45;&gt;Node7</title>
<g id="a_edge6_Node000006_Node000007"><a xlink:title=" ">
<path fill="none" stroke="#63b8ff" d="M310.95,-169.84C327.08,-161.51 350.5,-149.41 368.99,-139.86"/>
<polygon fill="#63b8ff" stroke="#63b8ff" points="370.59,-142.97 377.87,-135.27 367.38,-136.75 370.59,-142.97"/>
</a>
</g>
</g>
<!-- Node8 -->
<g id="Node000008" class="node">
<title>Node8</title>
<g id="a_Node000008"><a xlink:href="Flow_8hpp.html" target="_top" xlink:title="Interface abstrata que representa um fluxo entre sistemas.">
<polygon fill="white" stroke="#666666" points="373.75,-77.5 314.25,-77.5 314.25,-56.75 373.75,-56.75 373.75,-77.5"/>
<text xml:space="preserve" text-anchor="middle" x="344" y="-64" font-family="Helvetica,sans-Serif" font-size="10.00">Flow.hpp</text>
</a>
</g>
</g>
<!-- Node7&#45;&gt;Node8 -->
<g id="edge7_Node000007_Node000008" class="edge">
<title>Node7&#45;&gt;Node8</title>
<g id="a_edge7_Node000007_Node000008"><a xlink:title=" ">
<path fill="none" stroke="#63b8ff" d="M388.35,-113.09C380.9,-105.53 370.39,-94.89 361.48,-85.85"/>
<polygon fill="#63b8ff" stroke="#63b8ff" points="364.15,-83.57 354.63,-78.91 359.16,-88.48 364.15,-83.57"/>
</a>
</g>
</g>
<!-- Node9 -->
<g id="Node000009" class="node">
<title>Node9</title>
<g id="a_Node000009"><a xlink:href="System_8hpp.html" target="_top" xlink:title="Interface abstrata que representa um sistema do simulador.">
<polygon fill="white" stroke="#666666" points="465.88,-77.5 392.12,-77.5 392.12,-56.75 465.88,-56.75 465.88,-77.5"/>
<text xml:space="preserve" text-anchor="middle" x="429" y="-64" font-family="Helvetica,sans-Serif" font-size="10.00">System.hpp</text>
</a>
</g>
</g>
<!-- Node7&#45;&gt;Node9 -->
<g id="edge9_Node000007_Node000009" class="edge">
<title>Node7&#45;&gt;Node9</title>
<g id="a_edge9_Node000007_Node000009"><a xlink:title=" ">
<path fill="none" stroke="#63b8ff" d="M403.54,-113.09C407.51,-106.08 412.99,-96.41 417.84,-87.83"/>
<polygon fill="#63b8ff" stroke="#63b8ff" points="420.88,-89.57 422.76,-79.15 414.79,-86.12 420.88,-89.57"/>
</a>
</g>
</g>
<!-- Node8&#45;&gt;Node4 -->
<g id="edge8_Node000008_Node000004" class="edge">
<title>Node8&#45;&gt;Node4</title>
<g id="a_edge8_Node000008_Node000004"><a xlink:title=" ">
<path fill="none" stroke="#63b8ff" d="M344,-56.34C344,-49.72 344,-40.72 344,-32.52"/>
<polygon fill="#63b8ff" stroke="#63b8ff" points="347.5,-32.59 344,-22.59 340.5,-32.59 347.5,-32.59"/>
</a>
</g>
</g>
<!-- Node9&#45;&gt;Node4 -->
<g id="edge10_Node000009_Node000004" class="edge">
<title>Node9&#45;&gt;Node4</title>
<g id="a_edge10_Node000009_Node000004"><a xlink:title=" ">
<path fill="none" stroke="#63b8ff" d="M413.8,-56.34C401.23,-48.24 383.14,-36.58 368.52,-27.17"/>
<polygon fill="#63b8ff" stroke="#63b8ff" points="370.64,-24.37 360.34,-21.9 366.85,-30.26 370.64,-24.37"/>
</a>
</g>
</g>
<!-- Node10&#45;&gt;Node4 -->
<g id="edge14_Node000010_Node000004" class="edge">
<title>Node10&#45;&gt;Node4</title>
<g id="a_edge14_Node000010_Node000004"><a xlink:title=" ">
<path fill="none" stroke="#63b8ff" d="M495.55,-170C498.62,-147.38 502.94,-90.23 475,-56.75 450.9,-27.87 407.42,-17.34 377.19,-13.52"/>
<polygon fill="#63b8ff" stroke="#63b8ff" points="377.75,-10.06 367.43,-12.49 377.01,-17.02 377.75,-10.06"/>
</a>
</g>
</g>
<!-- Node10&#45;&gt;Node7 -->
<g id="edge13_Node000010_Node000007" class="edge">
<title>Node10&#45;&gt;Node7</title>
<g id="a_edge13_Node000010_Node000007"><a xlink:title=" ">
<path fill="none" stroke="#63b8ff" d="M476.84,-169.84C462.37,-161.58 441.41,-149.63 424.74,-140.13"/>
<polygon fill="#63b8ff" stroke="#63b8ff" points="426.75,-137.24 416.33,-135.33 423.28,-143.32 426.75,-137.24"/>
</a>
</g>
</g>
<!-- Node11&#45;&gt;Node7 -->
<g id="edge16_Node000011_Node000007" class="edge">
<title>Node11&#45;&gt;Node7</title>
<g id="a_edge16_Node000011_Node000007"><a xlink:title=" ">
<path fill="none" stroke="#63b8ff" d="M398,-169.84C398,-163.22 398,-154.22 398,-146.02"/>
<polygon fill="#63b8ff" stroke="#63b8ff" points="401.5,-146.09 398,-136.09 394.5,-146.09 401.5,-146.09"/>
</a>
</g>
</g>
</g>
</svg>
