<?xml version="1.0" encoding="UTF-8" standalone="no"?>
<!DOCTYPE svg PUBLIC "-//W3C//DTD SVG 1.1//EN"
 "http://www.w3.org/Graphics/SVG/1.1/DTD/svg11.dtd">
<<<<<<< HEAD
<!-- Generated by graphviz version 15.0.0 (20260523.1842)
 -->
<!-- Title: test/funcional_test.hpp Pages: 1 -->
<svg width="326pt" height="252pt"
 viewBox="0.00 0.00 326.00 252.00" xmlns="http://www.w3.org/2000/svg" xmlns:xlink="http://www.w3.org/1999/xlink">
<g id="graph0" class="graph" transform="scale(1 1) rotate(0) translate(4 248)">
<title>test/funcional_test.hpp</title>
=======
<!-- Generated by graphviz version 14.1.2 (0)
 -->
<!-- Title: test/funcional/funcional_test.hpp Pages: 1 -->
<svg width="578pt" height="269pt"
 viewBox="0.00 0.00 578.00 269.00" xmlns="http://www.w3.org/2000/svg" xmlns:xlink="http://www.w3.org/1999/xlink">
<g id="graph0" class="graph" transform="scale(1 1) rotate(0) translate(4 264.5)">
<title>test/funcional/funcional_test.hpp</title>
>>>>>>> dc02b4f64e7811a1372d94719e5761d5de1464ea
<!-- Node1 -->
<g id="Node000001" class="node">
<title>Node1</title>
<g id="a_Node000001"><a xlink:title="Arquivo contendo as assinaturas dos testes funcionais da simulação.">
<<<<<<< HEAD
<polygon fill="#999999" stroke="#666666" points="214.3,-244 99.3,-244 99.3,-224 214.3,-224 214.3,-244"/>
<text xml:space="preserve" text-anchor="middle" x="156.8" y="-230.5" font-family="Helvetica,sans-Serif" font-size="10.00">test/funcional_test.hpp</text>
=======
<polygon fill="#999999" stroke="#666666" points="370.75,-260.5 240,-260.5 240,-227 370.75,-227 370.75,-260.5"/>
<text xml:space="preserve" text-anchor="start" x="248" y="-247" font-family="Helvetica,sans-Serif" font-size="10.00">test/funcional/funcional</text>
<text xml:space="preserve" text-anchor="middle" x="305.38" y="-234.25" font-family="Helvetica,sans-Serif" font-size="10.00">_test.hpp</text>
>>>>>>> dc02b4f64e7811a1372d94719e5761d5de1464ea
</a>
</g>
</g>
<!-- Node2 -->
<g id="Node000002" class="node">
<title>Node2</title>
<<<<<<< HEAD
<g id="a_Node000002"><a xlink:href="model_8hpp.html" target="_top" xlink:title="Declaração da classe Model, responsável por gerenciar e executar a simulação.">
<polygon fill="white" stroke="#666666" points="93.3,-188 32.3,-188 32.3,-168 93.3,-168 93.3,-188"/>
<text xml:space="preserve" text-anchor="middle" x="62.8" y="-174.5" font-family="Helvetica,sans-Serif" font-size="10.00">model.hpp</text>
=======
<g id="a_Node000002"><a xlink:href="ModelImpl_8hpp.html" target="_top" xlink:title="Implementação concreta da interface Model.">
<polygon fill="white" stroke="#666666" points="178.38,-134.25 54.38,-134.25 54.38,-113.5 178.38,-113.5 178.38,-134.25"/>
<text xml:space="preserve" text-anchor="middle" x="116.38" y="-120.75" font-family="Helvetica,sans-Serif" font-size="10.00">../../src/ModelImpl.hpp</text>
>>>>>>> dc02b4f64e7811a1372d94719e5761d5de1464ea
</a>
</g>
</g>
<!-- Node1&#45;&gt;Node2 -->
<g id="edge1_Node000001_Node000002" class="edge">
<title>Node1&#45;&gt;Node2</title>
<g id="a_edge1_Node000001_Node000002"><a xlink:title=" ">
<<<<<<< HEAD
<path fill="none" stroke="#63b8ff" d="M140.42,-223.59C126.22,-215.44 105.42,-203.48 88.92,-194"/>
<polygon fill="#63b8ff" stroke="#63b8ff" points="91.03,-191.18 80.61,-189.23 87.54,-197.25 91.03,-191.18"/>
</a>
</g>
</g>
<!-- Node5 -->
<g id="Node000005" class="node">
<title>Node5</title>
<g id="a_Node000005"><a xlink:href="_system_8hpp_source.html" target="_top" xlink:title=" ">
<polygon fill="white" stroke="#666666" points="156.05,-76 87.55,-76 87.55,-56 156.05,-56 156.05,-76"/>
<text xml:space="preserve" text-anchor="middle" x="121.8" y="-62.5" font-family="Helvetica,sans-Serif" font-size="10.00">System.hpp</text>
</a>
</g>
</g>
<!-- Node1&#45;&gt;Node5 -->
<g id="edge9_Node000001_Node000005" class="edge">
<title>Node1&#45;&gt;Node5</title>
<g id="a_edge9_Node000001_Node000005"><a xlink:title=" ">
<path fill="none" stroke="#63b8ff" d="M152.84,-223.5C149.23,-214.5 143.98,-200.54 140.8,-188 131.97,-153.23 126.53,-111.75 123.84,-87.49"/>
<polygon fill="#63b8ff" stroke="#63b8ff" points="127.34,-87.31 122.81,-77.73 120.38,-88.04 127.34,-87.31"/>
</a>
</g>
</g>
<!-- Node7 -->
<g id="Node000007" class="node">
<title>Node7</title>
<g id="a_Node000007"><a xlink:href="exponential_8hpp_source.html" target="_top" xlink:title=" ">
<polygon fill="white" stroke="#666666" points="233.92,-188 149.67,-188 149.67,-168 233.92,-168 233.92,-188"/>
<text xml:space="preserve" text-anchor="middle" x="191.8" y="-174.5" font-family="Helvetica,sans-Serif" font-size="10.00">exponential.hpp</text>
</a>
</g>
</g>
<!-- Node1&#45;&gt;Node7 -->
<g id="edge10_Node000001_Node000007" class="edge">
<title>Node1&#45;&gt;Node7</title>
<g id="a_edge10_Node000001_Node000007"><a xlink:title=" ">
<path fill="none" stroke="#63b8ff" d="M162.89,-223.59C167.51,-216.47 174,-206.45 179.67,-197.72"/>
<polygon fill="#63b8ff" stroke="#63b8ff" points="182.45,-199.86 184.95,-189.57 176.57,-196.06 182.45,-199.86"/>
=======
<path fill="none" stroke="#63b8ff" d="M257.22,-226.52C234.46,-217.74 207.5,-205.67 185.38,-191 164.96,-177.46 145.14,-157.54 132.02,-143.11"/>
<polygon fill="#63b8ff" stroke="#63b8ff" points="134.68,-140.83 125.43,-135.67 129.44,-145.47 134.68,-140.83"/>
>>>>>>> dc02b4f64e7811a1372d94719e5761d5de1464ea
</a>
</g>
</g>
<!-- Node8 -->
<g id="Node000008" class="node">
<title>Node8</title>
<<<<<<< HEAD
<g id="a_Node000008"><a xlink:href="logistic_8hpp.html" target="_top" xlink:title="Declaração da classe Logistic, que representa um fluxo com variação logística.">
<polygon fill="white" stroke="#666666" points="317.55,-188 252.05,-188 252.05,-168 317.55,-168 317.55,-188"/>
<text xml:space="preserve" text-anchor="middle" x="284.8" y="-174.5" font-family="Helvetica,sans-Serif" font-size="10.00">logistic.hpp</text>
=======
<g id="a_Node000008"><a xlink:href="SystemImpl_8hpp.html" target="_top" xlink:title="Implementação concreta da interface System.">
<polygon fill="white" stroke="#666666" points="502.75,-134.25 372,-134.25 372,-113.5 502.75,-113.5 502.75,-134.25"/>
<text xml:space="preserve" text-anchor="middle" x="437.38" y="-120.75" font-family="Helvetica,sans-Serif" font-size="10.00">../../src/SystemImpl.hpp</text>
>>>>>>> dc02b4f64e7811a1372d94719e5761d5de1464ea
</a>
</g>
</g>
<!-- Node1&#45;&gt;Node8 -->
<g id="edge11_Node000001_Node000008" class="edge">
<title>Node1&#45;&gt;Node8</title>
<<<<<<< HEAD
<g id="a_edge13_Node000001_Node000008"><a xlink:title=" ">
<path fill="none" stroke="#63b8ff" d="M179.09,-223.59C199.16,-215.13 228.91,-202.58 251.75,-192.94"/>
<polygon fill="#63b8ff" stroke="#63b8ff" points="253.08,-196.18 260.93,-189.07 250.36,-189.73 253.08,-196.18"/>
=======
<g id="a_edge11_Node000001_Node000008"><a xlink:title=" ">
<path fill="none" stroke="#63b8ff" d="M323.45,-226.61C348.23,-204.48 392.56,-164.9 418,-142.18"/>
<polygon fill="#63b8ff" stroke="#63b8ff" points="420.19,-144.92 425.31,-135.64 415.52,-139.69 420.19,-144.92"/>
</a>
</g>
</g>
<!-- Node9 -->
<g id="Node000009" class="node">
<title>Node9</title>
<g id="a_Node000009"><a xlink:href="Exponential_8hpp.html" target="_top" xlink:title="Declaração da classe Exponential.">
<polygon fill="white" stroke="#666666" points="324.38,-191 194.38,-191 194.38,-170.25 324.38,-170.25 324.38,-191"/>
<text xml:space="preserve" text-anchor="middle" x="259.38" y="-177.5" font-family="Helvetica,sans-Serif" font-size="10.00">../../src/Exponential.hpp</text>
</a>
</g>
</g>
<!-- Node1&#45;&gt;Node9 -->
<g id="edge13_Node000001_Node000009" class="edge">
<title>Node1&#45;&gt;Node9</title>
<g id="a_edge13_Node000001_Node000009"><a xlink:title=" ">
<path fill="none" stroke="#63b8ff" d="M293.29,-226.69C287.24,-218.66 279.89,-208.88 273.57,-200.49"/>
<polygon fill="#63b8ff" stroke="#63b8ff" points="276.5,-198.56 267.69,-192.68 270.91,-202.77 276.5,-198.56"/>
</a>
</g>
</g>
<!-- Node11 -->
<g id="Node000011" class="node">
<title>Node11</title>
<g id="a_Node000011"><a xlink:href="Logistic_8hpp.html" target="_top" xlink:title=" ">
<polygon fill="white" stroke="#666666" points="570.25,-191 460.5,-191 460.5,-170.25 570.25,-170.25 570.25,-191"/>
<text xml:space="preserve" text-anchor="middle" x="515.38" y="-177.5" font-family="Helvetica,sans-Serif" font-size="10.00">../../src/Logistic.hpp</text>
</a>
</g>
</g>
<!-- Node1&#45;&gt;Node11 -->
<g id="edge19_Node000001_Node000011" class="edge">
<title>Node1&#45;&gt;Node11</title>
<g id="a_edge19_Node000001_Node000011"><a xlink:title=" ">
<path fill="none" stroke="#63b8ff" d="M361.1,-226.53C395.45,-216.53 438.89,-203.89 470.92,-194.56"/>
<polygon fill="#63b8ff" stroke="#63b8ff" points="471.66,-197.99 480.29,-191.84 469.71,-191.27 471.66,-197.99"/>
>>>>>>> dc02b4f64e7811a1372d94719e5761d5de1464ea
</a>
</g>
</g>
<!-- Node3 -->
<g id="Node000003" class="node">
<title>Node3</title>
<<<<<<< HEAD
<g id="a_Node000003"><a xlink:title=" ">
<polygon fill="#e0e0e0" stroke="#999999" points="55.3,-132 12.3,-132 12.3,-112 55.3,-112 55.3,-132"/>
<text xml:space="preserve" text-anchor="middle" x="33.8" y="-118.5" font-family="Helvetica,sans-Serif" font-size="10.00">vector</text>
=======
<g id="a_Node000003"><a xlink:href="Model_8hpp.html" target="_top" xlink:title="Interface abstrata responsável pelo gerenciamento da simulação.">
<polygon fill="white" stroke="#666666" points="87.88,-77.5 20.88,-77.5 20.88,-56.75 87.88,-56.75 87.88,-77.5"/>
<text xml:space="preserve" text-anchor="middle" x="54.38" y="-64" font-family="Helvetica,sans-Serif" font-size="10.00">Model.hpp</text>
>>>>>>> dc02b4f64e7811a1372d94719e5761d5de1464ea
</a>
</g>
</g>
<!-- Node2&#45;&gt;Node3 -->
<g id="edge2_Node000002_Node000003" class="edge">
<title>Node2&#45;&gt;Node3</title>
<g id="a_edge2_Node000002_Node000003"><a xlink:title=" ">
<<<<<<< HEAD
<path fill="none" stroke="#63b8ff" d="M57.75,-167.59C54,-160.63 48.77,-150.89 44.15,-142.29"/>
<polygon fill="#63b8ff" stroke="#63b8ff" points="47.32,-140.79 39.51,-133.63 41.15,-144.1 47.32,-140.79"/>
=======
<path fill="none" stroke="#63b8ff" d="M105.29,-113.09C96.56,-105.38 84.18,-94.45 73.81,-85.29"/>
<polygon fill="#63b8ff" stroke="#63b8ff" points="76.31,-82.83 66.5,-78.83 71.68,-88.07 76.31,-82.83"/>
>>>>>>> dc02b4f64e7811a1372d94719e5761d5de1464ea
</a>
</g>
</g>
<!-- Node4 -->
<g id="Node000004" class="node">
<title>Node4</title>
<g id="a_Node000004"><a xlink:title=" ">
<<<<<<< HEAD
<polygon fill="#e0e0e0" stroke="#999999" points="203.8,-20 163.8,-20 163.8,0 203.8,0 203.8,-20"/>
<text xml:space="preserve" text-anchor="middle" x="183.8" y="-6.5" font-family="Helvetica,sans-Serif" font-size="10.00">string</text>
=======
<polygon fill="#e0e0e0" stroke="#999999" points="46.75,-20.75 0,-20.75 0,0 46.75,0 46.75,-20.75"/>
<text xml:space="preserve" text-anchor="middle" x="23.38" y="-7.25" font-family="Helvetica,sans-Serif" font-size="10.00">vector</text>
>>>>>>> dc02b4f64e7811a1372d94719e5761d5de1464ea
</a>
</g>
</g>
<!-- Node2&#45;&gt;Node4 -->
<g id="edge9_Node000002_Node000004" class="edge">
<title>Node2&#45;&gt;Node4</title>
<<<<<<< HEAD
<g id="a_edge3_Node000002_Node000004"><a xlink:title=" ">
<path fill="none" stroke="#63b8ff" d="M42.66,-167.61C20.99,-156.07 -8.91,-135.16 2.8,-112 31.86,-54.48 108.83,-28.01 152.47,-17.3"/>
<polygon fill="#63b8ff" stroke="#63b8ff" points="153.13,-20.74 162.09,-15.08 151.56,-13.92 153.13,-20.74"/>
=======
<g id="a_edge9_Node000002_Node000004"><a xlink:title=" ">
<path fill="none" stroke="#63b8ff" d="M64.79,-113.03C44.93,-106.46 24.19,-95.55 12.38,-77.5 3.51,-63.96 7.52,-45.62 13.04,-31.69"/>
<polygon fill="#63b8ff" stroke="#63b8ff" points="16.21,-33.16 17.15,-22.6 9.84,-30.27 16.21,-33.16"/>
</a>
</g>
</g>
<!-- Node5 -->
<g id="Node000005" class="node">
<title>Node5</title>
<g id="a_Node000005"><a xlink:title=" ">
<polygon fill="#e0e0e0" stroke="#999999" points="225.25,-20.75 181.5,-20.75 181.5,0 225.25,0 225.25,-20.75"/>
<text xml:space="preserve" text-anchor="middle" x="203.38" y="-7.25" font-family="Helvetica,sans-Serif" font-size="10.00">string</text>
>>>>>>> dc02b4f64e7811a1372d94719e5761d5de1464ea
</a>
</g>
</g>
<!-- Node2&#45;&gt;Node5 -->
<g id="edge10_Node000002_Node000005" class="edge">
<title>Node2&#45;&gt;Node5</title>
<<<<<<< HEAD
<g id="a_edge4_Node000002_Node000005"><a xlink:title=" ">
<path fill="none" stroke="#63b8ff" d="M67.83,-167.62C77.45,-149.68 98.64,-110.17 111.42,-86.35"/>
<polygon fill="#63b8ff" stroke="#63b8ff" points="114.42,-88.16 116.06,-77.69 108.25,-84.85 114.42,-88.16"/>
=======
<g id="a_edge10_Node000002_Node000005"><a xlink:title=" ">
<path fill="none" stroke="#63b8ff" d="M117.05,-113.44C118.45,-99.75 122.69,-74.11 135.38,-56.75 144.56,-44.18 158.36,-34.05 171.13,-26.58"/>
<polygon fill="#63b8ff" stroke="#63b8ff" points="172.62,-29.76 179.71,-21.89 169.26,-23.61 172.62,-29.76"/>
>>>>>>> dc02b4f64e7811a1372d94719e5761d5de1464ea
</a>
</g>
</g>
<!-- Node6 -->
<g id="Node000006" class="node">
<title>Node6</title>
<<<<<<< HEAD
<g id="a_Node000006"><a xlink:href="flow_8hpp_source.html" target="_top" xlink:title=" ">
<polygon fill="white" stroke="#666666" points="201.8,-132 149.8,-132 149.8,-112 201.8,-112 201.8,-132"/>
<text xml:space="preserve" text-anchor="middle" x="175.8" y="-118.5" font-family="Helvetica,sans-Serif" font-size="10.00">flow.hpp</text>
=======
<g id="a_Node000006"><a xlink:href="System_8hpp.html" target="_top" xlink:title="Interface abstrata que representa um sistema do simulador.">
<polygon fill="white" stroke="#666666" points="342.25,-77.5 268.5,-77.5 268.5,-56.75 342.25,-56.75 342.25,-77.5"/>
<text xml:space="preserve" text-anchor="middle" x="305.38" y="-64" font-family="Helvetica,sans-Serif" font-size="10.00">System.hpp</text>
>>>>>>> dc02b4f64e7811a1372d94719e5761d5de1464ea
</a>
</g>
</g>
<!-- Node2&#45;&gt;Node6 -->
<g id="edge5_Node000002_Node000006" class="edge">
<title>Node2&#45;&gt;Node6</title>
<<<<<<< HEAD
<g id="a_edge6_Node000002_Node000006"><a xlink:title=" ">
<path fill="none" stroke="#63b8ff" d="M82.48,-167.59C99.95,-159.24 125.75,-146.92 145.79,-137.34"/>
<polygon fill="#63b8ff" stroke="#63b8ff" points="147.08,-140.6 154.59,-133.13 144.06,-134.29 147.08,-140.6"/>
</a>
</g>
</g>
<!-- Node5&#45;&gt;Node4 -->
<g id="edge5_Node000005_Node000004" class="edge">
<title>Node5&#45;&gt;Node4</title>
<g id="a_edge5_Node000005_Node000004"><a xlink:title=" ">
<path fill="none" stroke="#63b8ff" d="M132.6,-55.59C141.4,-47.93 154.05,-36.91 164.57,-27.75"/>
<polygon fill="#63b8ff" stroke="#63b8ff" points="166.74,-30.5 171.98,-21.29 162.14,-25.22 166.74,-30.5"/>
</a>
</g>
</g>
<!-- Node6&#45;&gt;Node4 -->
<g id="edge7_Node000006_Node000004" class="edge">
<title>Node6&#45;&gt;Node4</title>
<g id="a_edge7_Node000006_Node000004"><a xlink:title=" ">
<path fill="none" stroke="#63b8ff" d="M176.48,-111.62C177.76,-94.01 180.55,-55.59 182.29,-31.65"/>
<polygon fill="#63b8ff" stroke="#63b8ff" points="185.77,-32.09 183.01,-21.86 178.79,-31.58 185.77,-32.09"/>
=======
<g id="a_edge5_Node000002_Node000006"><a xlink:title=" ">
<path fill="none" stroke="#63b8ff" d="M150.16,-113.09C180.98,-104.16 226.72,-90.91 260.57,-81.1"/>
<polygon fill="#63b8ff" stroke="#63b8ff" points="261.48,-84.49 270.11,-78.34 259.53,-77.76 261.48,-84.49"/>
</a>
</g>
</g>
<!-- Node7 -->
<g id="Node000007" class="node">
<title>Node7</title>
<g id="a_Node000007"><a xlink:href="Flow_8hpp.html" target="_top" xlink:title="Interface abstrata que representa um fluxo entre sistemas.">
<polygon fill="white" stroke="#666666" points="204.12,-77.5 144.62,-77.5 144.62,-56.75 204.12,-56.75 204.12,-77.5"/>
<text xml:space="preserve" text-anchor="middle" x="174.38" y="-64" font-family="Helvetica,sans-Serif" font-size="10.00">Flow.hpp</text>
</a>
</g>
</g>
<!-- Node2&#45;&gt;Node7 -->
<g id="edge7_Node000002_Node000007" class="edge">
<title>Node2&#45;&gt;Node7</title>
<g id="a_edge7_Node000002_Node000007"><a xlink:title=" ">
<path fill="none" stroke="#63b8ff" d="M126.74,-113.09C134.83,-105.46 146.26,-94.67 155.9,-85.57"/>
<polygon fill="#63b8ff" stroke="#63b8ff" points="158.13,-88.28 162.99,-78.87 153.32,-83.19 158.13,-88.28"/>
</a>
</g>
</g>
<!-- Node3&#45;&gt;Node4 -->
<g id="edge3_Node000003_Node000004" class="edge">
<title>Node3&#45;&gt;Node4</title>
<g id="a_edge3_Node000003_Node000004"><a xlink:title=" ">
<path fill="none" stroke="#63b8ff" d="M48.83,-56.34C44.87,-49.33 39.39,-39.66 34.53,-31.08"/>
<polygon fill="#63b8ff" stroke="#63b8ff" points="37.59,-29.37 29.61,-22.4 31.5,-32.82 37.59,-29.37"/>
</a>
</g>
</g>
<!-- Node3&#45;&gt;Node5 -->
<g id="edge4_Node000003_Node000005" class="edge">
<title>Node3&#45;&gt;Node5</title>
<g id="a_edge4_Node000003_Node000005"><a xlink:title=" ">
<path fill="none" stroke="#63b8ff" d="M81.01,-56.34C106.06,-47.13 143.63,-33.33 170.53,-23.45"/>
<polygon fill="#63b8ff" stroke="#63b8ff" points="171.73,-26.73 179.91,-20 169.32,-20.16 171.73,-26.73"/>
>>>>>>> dc02b4f64e7811a1372d94719e5761d5de1464ea
</a>
</g>
</g>
<!-- Node6&#45;&gt;Node5 -->
<g id="edge6_Node000006_Node000005" class="edge">
<title>Node6&#45;&gt;Node5</title>
<<<<<<< HEAD
<g id="a_edge8_Node000006_Node000005"><a xlink:title=" ">
<path fill="none" stroke="#63b8ff" d="M166.39,-111.59C158.88,-104.08 148.15,-93.35 139.1,-84.3"/>
<polygon fill="#63b8ff" stroke="#63b8ff" points="141.71,-81.96 132.17,-77.37 136.76,-86.91 141.71,-81.96"/>
</a>
</g>
</g>
<!-- Node7&#45;&gt;Node4 -->
<g id="edge12_Node000007_Node000004" class="edge">
<title>Node7&#45;&gt;Node4</title>
<g id="a_edge12_Node000007_Node000004"><a xlink:title=" ">
<path fill="none" stroke="#63b8ff" d="M197.03,-167.7C201.69,-158.84 208.17,-144.97 210.8,-132 218.06,-96.1 203.74,-54.47 193.32,-30.58"/>
<polygon fill="#63b8ff" stroke="#63b8ff" points="196.62,-29.38 189.26,-21.76 190.26,-32.31 196.62,-29.38"/>
</a>
</g>
</g>
<!-- Node7&#45;&gt;Node6 -->
<g id="edge11_Node000007_Node000006" class="edge">
<title>Node7&#45;&gt;Node6</title>
<g id="a_edge11_Node000007_Node000006"><a xlink:title=" ">
<path fill="none" stroke="#63b8ff" d="M189.01,-167.59C187.01,-160.86 184.25,-151.53 181.77,-143.15"/>
<polygon fill="#63b8ff" stroke="#63b8ff" points="185.18,-142.34 178.98,-133.75 178.47,-144.33 185.18,-142.34"/>
</a>
</g>
</g>
<!-- Node8&#45;&gt;Node4 -->
<g id="edge15_Node000008_Node000004" class="edge">
<title>Node8&#45;&gt;Node4</title>
<g id="a_edge15_Node000008_Node000004"><a xlink:title=" ">
<path fill="none" stroke="#63b8ff" d="M280.46,-167.56C270.72,-146.75 245.96,-95.59 219.8,-56 213.68,-46.74 206.11,-37.06 199.49,-29.06"/>
<polygon fill="#63b8ff" stroke="#63b8ff" points="202.16,-26.8 193.02,-21.43 196.82,-31.32 202.16,-26.8"/>
=======
<g id="a_edge6_Node000006_Node000005"><a xlink:title=" ">
<path fill="none" stroke="#63b8ff" d="M287.14,-56.34C271.69,-48.05 249.29,-36.02 231.54,-26.49"/>
<polygon fill="#63b8ff" stroke="#63b8ff" points="233.25,-23.44 222.79,-21.79 229.94,-29.61 233.25,-23.44"/>
</a>
</g>
</g>
<!-- Node7&#45;&gt;Node5 -->
<g id="edge8_Node000007_Node000005" class="edge">
<title>Node7&#45;&gt;Node5</title>
<g id="a_edge8_Node000007_Node000005"><a xlink:title=" ">
<path fill="none" stroke="#63b8ff" d="M179.56,-56.34C183.27,-49.33 188.39,-39.66 192.94,-31.08"/>
<polygon fill="#63b8ff" stroke="#63b8ff" points="195.94,-32.89 197.53,-22.42 189.75,-29.61 195.94,-32.89"/>
>>>>>>> dc02b4f64e7811a1372d94719e5761d5de1464ea
</a>
</g>
</g>
<!-- Node8&#45;&gt;Node6 -->
<g id="edge12_Node000008_Node000006" class="edge">
<title>Node8&#45;&gt;Node6</title>
<<<<<<< HEAD
<g id="a_edge14_Node000008_Node000006"><a xlink:title=" ">
<path fill="none" stroke="#63b8ff" d="M265.81,-167.59C249.03,-159.28 224.3,-147.03 205.01,-137.47"/>
<polygon fill="#63b8ff" stroke="#63b8ff" points="206.8,-134.45 196.29,-133.15 203.69,-140.73 206.8,-134.45"/>
=======
<g id="a_edge12_Node000008_Node000006"><a xlink:title=" ">
<path fill="none" stroke="#63b8ff" d="M413.78,-113.09C393.03,-104.48 362.6,-91.86 339.26,-82.18"/>
<polygon fill="#63b8ff" stroke="#63b8ff" points="340.75,-79.01 330.17,-78.41 338.06,-85.47 340.75,-79.01"/>
</a>
</g>
</g>
<!-- Node9&#45;&gt;Node5 -->
<g id="edge18_Node000009_Node000005" class="edge">
<title>Node9&#45;&gt;Node5</title>
<g id="a_edge18_Node000009_Node000005"><a xlink:title=" ">
<path fill="none" stroke="#63b8ff" d="M256.2,-170.1C247.39,-143.62 222.45,-68.68 210.26,-32.05"/>
<polygon fill="#63b8ff" stroke="#63b8ff" points="213.61,-31.04 207.13,-22.65 206.97,-33.25 213.61,-31.04"/>
</a>
</g>
</g>
<!-- Node9&#45;&gt;Node6 -->
<g id="edge17_Node000009_Node000006" class="edge">
<title>Node9&#45;&gt;Node6</title>
<g id="a_edge17_Node000009_Node000006"><a xlink:title=" ">
<path fill="none" stroke="#63b8ff" d="M258.02,-170.19C256.54,-156.94 255.33,-132.33 263.38,-113.5 267.96,-102.77 276.22,-92.97 284.21,-85.25"/>
<polygon fill="#63b8ff" stroke="#63b8ff" points="286.35,-88.03 291.46,-78.75 281.68,-82.82 286.35,-88.03"/>
</a>
</g>
</g>
<!-- Node10 -->
<g id="Node000010" class="node">
<title>Node10</title>
<g id="a_Node000010"><a xlink:href="FlowImpl_8hpp.html" target="_top" xlink:title="Implementação concreta da interface Flow.">
<polygon fill="white" stroke="#666666" points="354.38,-134.25 272.38,-134.25 272.38,-113.5 354.38,-113.5 354.38,-134.25"/>
<text xml:space="preserve" text-anchor="middle" x="313.38" y="-120.75" font-family="Helvetica,sans-Serif" font-size="10.00">FlowImpl.hpp</text>
</a>
</g>
</g>
<!-- Node9&#45;&gt;Node10 -->
<g id="edge14_Node000009_Node000010" class="edge">
<title>Node9&#45;&gt;Node10</title>
<g id="a_edge14_Node000009_Node000010"><a xlink:title=" ">
<path fill="none" stroke="#63b8ff" d="M269.03,-169.84C276.48,-162.28 286.98,-151.64 295.9,-142.6"/>
<polygon fill="#63b8ff" stroke="#63b8ff" points="298.21,-145.23 302.74,-135.66 293.23,-140.32 298.21,-145.23"/>
</a>
</g>
</g>
<!-- Node10&#45;&gt;Node6 -->
<g id="edge16_Node000010_Node000006" class="edge">
<title>Node10&#45;&gt;Node6</title>
<g id="a_edge16_Node000010_Node000006"><a xlink:title=" ">
<path fill="none" stroke="#63b8ff" d="M311.94,-113.09C310.97,-106.39 309.63,-97.26 308.42,-88.98"/>
<polygon fill="#63b8ff" stroke="#63b8ff" points="311.92,-88.71 307.01,-79.33 304.99,-89.73 311.92,-88.71"/>
</a>
</g>
</g>
<!-- Node10&#45;&gt;Node7 -->
<g id="edge15_Node000010_Node000007" class="edge">
<title>Node10&#45;&gt;Node7</title>
<g id="a_edge15_Node000010_Node000007"><a xlink:title=" ">
<path fill="none" stroke="#63b8ff" d="M288.52,-113.09C266.49,-104.41 234.06,-91.63 209.39,-81.92"/>
<polygon fill="#63b8ff" stroke="#63b8ff" points="211.01,-78.79 200.42,-78.38 208.44,-85.3 211.01,-78.79"/>
</a>
</g>
</g>
<!-- Node11&#45;&gt;Node5 -->
<g id="edge22_Node000011_Node000005" class="edge">
<title>Node11&#45;&gt;Node5</title>
<g id="a_edge22_Node000011_Node000005"><a xlink:title=" ">
<path fill="none" stroke="#63b8ff" d="M521.64,-170.11C529.85,-156.32 541.84,-130.55 529.38,-113.5 494.17,-65.32 312.87,-29.78 236.92,-16.78"/>
<polygon fill="#63b8ff" stroke="#63b8ff" points="237.6,-13.35 227.16,-15.14 236.44,-20.25 237.6,-13.35"/>
</a>
</g>
</g>
<!-- Node11&#45;&gt;Node6 -->
<g id="edge21_Node000011_Node000006" class="edge">
<title>Node11&#45;&gt;Node6</title>
<g id="a_edge21_Node000011_Node000006"><a xlink:title=" ">
<path fill="none" stroke="#63b8ff" d="M518.08,-169.76C521.34,-155.54 524.83,-129.24 511.38,-113.5 491.27,-89.98 407.95,-77.74 353.63,-72.14"/>
<polygon fill="#63b8ff" stroke="#63b8ff" points="354.32,-68.69 344.02,-71.19 353.63,-75.65 354.32,-68.69"/>
</a>
</g>
</g>
<!-- Node11&#45;&gt;Node10 -->
<g id="edge20_Node000011_Node000010" class="edge">
<title>Node11&#45;&gt;Node10</title>
<g id="a_edge20_Node000011_Node000010"><a xlink:title=" ">
<path fill="none" stroke="#63b8ff" d="M479.26,-169.84C446.04,-160.83 396.59,-147.43 360.32,-137.6"/>
<polygon fill="#63b8ff" stroke="#63b8ff" points="361.54,-134.3 350.98,-135.07 359.71,-141.06 361.54,-134.3"/>
>>>>>>> dc02b4f64e7811a1372d94719e5761d5de1464ea
</a>
</g>
</g>
</g>
</svg>
