<?xml version="1.0" encoding="UTF-8" standalone="no"?>
<!DOCTYPE svg PUBLIC "-//W3C//DTD SVG 1.1//EN"
 "http://www.w3.org/Graphics/SVG/1.1/DTD/svg11.dtd">
<!-- Generated by graphviz version 14.1.2 (0)
 -->
<!-- Title: src/ModelImpl.cpp Pages: 1 -->
<svg width="298pt" height="199pt"
 viewBox="0.00 0.00 298.00 199.00" xmlns="http://www.w3.org/2000/svg" xmlns:xlink="http://www.w3.org/1999/xlink">
<g id="graph0" class="graph" transform="scale(1 1) rotate(0) translate(4 195)">
<title>src/ModelImpl.cpp</title>
<!-- Node1 -->
<g id="Node000001" class="node">
<title>Node1</title>
<g id="a_Node000001"><a xlink:title=" ">
<polygon fill="#999999" stroke="#666666" points="232.19,-191 126.94,-191 126.94,-170.25 232.19,-170.25 232.19,-191"/>
<text xml:space="preserve" text-anchor="middle" x="179.56" y="-177.5" font-family="Helvetica,sans-Serif" font-size="10.00">src/ModelImpl.cpp</text>
</a>
</g>
</g>
<!-- Node2 -->
<g id="Node000002" class="node">
<title>Node2</title>
<g id="a_Node000002"><a xlink:href="ModelImpl_8hpp.html" target="_top" xlink:title=" ">
<polygon fill="white" stroke="#666666" points="168.94,-134.25 80.19,-134.25 80.19,-113.5 168.94,-113.5 168.94,-134.25"/>
<text xml:space="preserve" text-anchor="middle" x="124.56" y="-120.75" font-family="Helvetica,sans-Serif" font-size="10.00">ModelImpl.hpp</text>
</a>
</g>
</g>
<!-- Node1&#45;&gt;Node2 -->
<g id="edge1_Node000001_Node000002" class="edge">
<title>Node1&#45;&gt;Node2</title>
<g id="a_edge1_Node000001_Node000002"><a xlink:title=" ">
<path fill="none" stroke="#63b8ff" d="M169.73,-169.84C162.14,-162.28 151.45,-151.64 142.37,-142.6"/>
<polygon fill="#63b8ff" stroke="#63b8ff" points="144.94,-140.22 135.38,-135.65 140,-145.18 144.94,-140.22"/>
</a>
</g>
</g>
<!-- Node8 -->
<g id="Node000008" class="node">
<title>Node8</title>
<g id="a_Node000008"><a xlink:href="SystemImpl_8hpp.html" target="_top" xlink:title="Implementação concreta da interface System.">
<polygon fill="white" stroke="#666666" points="290.31,-134.25 194.81,-134.25 194.81,-113.5 290.31,-113.5 290.31,-134.25"/>
<text xml:space="preserve" text-anchor="middle" x="242.56" y="-120.75" font-family="Helvetica,sans-Serif" font-size="10.00">SystemImpl.hpp</text>
</a>
</g>
</g>
<!-- Node1&#45;&gt;Node8 -->
<g id="edge11_Node000001_Node000008" class="edge">
<title>Node1&#45;&gt;Node8</title>
<g id="a_edge11_Node000001_Node000008"><a xlink:title=" ">
<path fill="none" stroke="#63b8ff" d="M190.83,-169.84C199.7,-162.13 212.28,-151.2 222.81,-142.04"/>
<polygon fill="#63b8ff" stroke="#63b8ff" points="225,-144.77 230.26,-135.57 220.41,-139.49 225,-144.77"/>
</a>
</g>
</g>
<!-- Node3 -->
<g id="Node000003" class="node">
<title>Node3</title>
<g id="a_Node000003"><a xlink:href="Model_8hpp.html" target="_top" xlink:title=" ">
<polygon fill="white" stroke="#666666" points="80.06,-77.5 13.06,-77.5 13.06,-56.75 80.06,-56.75 80.06,-77.5"/>
<text xml:space="preserve" text-anchor="middle" x="46.56" y="-64" font-family="Helvetica,sans-Serif" font-size="10.00">Model.hpp</text>
</a>
</g>
</g>
<!-- Node2&#45;&gt;Node3 -->
<g id="edge2_Node000002_Node000003" class="edge">
<title>Node2&#45;&gt;Node3</title>
<g id="a_edge2_Node000002_Node000003"><a xlink:title=" ">
<path fill="none" stroke="#63b8ff" d="M110.62,-113.09C99.19,-105.07 82.8,-93.56 69.45,-84.19"/>
<polygon fill="#63b8ff" stroke="#63b8ff" points="71.82,-81.58 61.63,-78.7 67.8,-87.31 71.82,-81.58"/>
</a>
</g>
</g>
<!-- Node4 -->
<g id="Node000004" class="node">
<title>Node4</title>
<g id="a_Node000004"><a xlink:title=" ">
<polygon fill="#e0e0e0" stroke="#999999" points="145.44,-20.75 101.69,-20.75 101.69,0 145.44,0 145.44,-20.75"/>
<text xml:space="preserve" text-anchor="middle" x="123.56" y="-7.25" font-family="Helvetica,sans-Serif" font-size="10.00">string</text>
</a>
</g>
</g>
<!-- Node2&#45;&gt;Node4 -->
<g id="edge10_Node000002_Node000004" class="edge">
<title>Node2&#45;&gt;Node4</title>
<g id="a_edge10_Node000002_Node000004"><a xlink:title=" ">
<path fill="none" stroke="#63b8ff" d="M124.48,-113.37C124.32,-95.6 123.97,-56.97 123.76,-32.68"/>
<polygon fill="#63b8ff" stroke="#63b8ff" points="127.26,-32.66 123.67,-22.69 120.26,-32.72 127.26,-32.66"/>
</a>
</g>
</g>
<!-- Node5 -->
<g id="Node000005" class="node">
<title>Node5</title>
<g id="a_Node000005"><a xlink:title=" ">
<polygon fill="#e0e0e0" stroke="#999999" points="53.94,-20.75 7.19,-20.75 7.19,0 53.94,0 53.94,-20.75"/>
<text xml:space="preserve" text-anchor="middle" x="30.56" y="-7.25" font-family="Helvetica,sans-Serif" font-size="10.00">vector</text>
</a>
</g>
</g>
<!-- Node2&#45;&gt;Node5 -->
<g id="edge9_Node000002_Node000005" class="edge">
<title>Node2&#45;&gt;Node5</title>
<g id="a_edge9_Node000002_Node000005"><a xlink:title=" ">
<path fill="none" stroke="#63b8ff" d="M79.74,-118.39C53.14,-113.17 21.4,-101.87 4.56,-77.5 -5.58,-62.82 4.04,-43.62 14.32,-29.7"/>
<polygon fill="#63b8ff" stroke="#63b8ff" points="16.82,-32.18 20.37,-22.2 11.37,-27.79 16.82,-32.18"/>
</a>
</g>
</g>
<!-- Node6 -->
<g id="Node000006" class="node">
<title>Node6</title>
<g id="a_Node000006"><a xlink:href="System_8hpp.html" target="_top" xlink:title="Interface abstrata que representa um sistema do simulador.">
<polygon fill="white" stroke="#666666" points="288.44,-77.5 214.69,-77.5 214.69,-56.75 288.44,-56.75 288.44,-77.5"/>
<text xml:space="preserve" text-anchor="middle" x="251.56" y="-64" font-family="Helvetica,sans-Serif" font-size="10.00">System.hpp</text>
</a>
</g>
</g>
<!-- Node2&#45;&gt;Node6 -->
<g id="edge5_Node000002_Node000006" class="edge">
<title>Node2&#45;&gt;Node6</title>
<g id="a_edge5_Node000002_Node000006"><a xlink:title=" ">
<path fill="none" stroke="#63b8ff" d="M147.27,-113.09C167.13,-104.52 196.24,-91.98 218.66,-82.31"/>
<polygon fill="#63b8ff" stroke="#63b8ff" points="219.87,-85.6 227.67,-78.43 217.1,-79.17 219.87,-85.6"/>
</a>
</g>
</g>
<!-- Node7 -->
<g id="Node000007" class="node">
<title>Node7</title>
<g id="a_Node000007"><a xlink:href="Flow_8hpp.html" target="_top" xlink:title="Interface abstrata que representa um fluxo entre sistemas.">
<polygon fill="white" stroke="#666666" points="196.31,-77.5 136.81,-77.5 136.81,-56.75 196.31,-56.75 196.31,-77.5"/>
<text xml:space="preserve" text-anchor="middle" x="166.56" y="-64" font-family="Helvetica,sans-Serif" font-size="10.00">Flow.hpp</text>
</a>
</g>
</g>
<!-- Node2&#45;&gt;Node7 -->
<g id="edge7_Node000002_Node000007" class="edge">
<title>Node2&#45;&gt;Node7</title>
<g id="a_edge7_Node000002_Node000007"><a xlink:title=" ">
<path fill="none" stroke="#63b8ff" d="M132.07,-113.09C137.69,-105.77 145.53,-95.54 152.32,-86.69"/>
<polygon fill="#63b8ff" stroke="#63b8ff" points="154.89,-89.09 158.2,-79.03 149.34,-84.83 154.89,-89.09"/>
</a>
</g>
</g>
<!-- Node3&#45;&gt;Node4 -->
<g id="edge3_Node000003_Node000004" class="edge">
<title>Node3&#45;&gt;Node4</title>
<g id="a_edge3_Node000003_Node000004"><a xlink:title=" ">
<path fill="none" stroke="#63b8ff" d="M60.33,-56.34C71.5,-48.4 87.48,-37.03 100.59,-27.71"/>
<polygon fill="#63b8ff" stroke="#63b8ff" points="102.56,-30.6 108.68,-21.96 98.51,-24.9 102.56,-30.6"/>
</a>
</g>
</g>
<!-- Node3&#45;&gt;Node5 -->
<g id="edge4_Node000003_Node000005" class="edge">
<title>Node3&#45;&gt;Node5</title>
<g id="a_edge4_Node000003_Node000005"><a xlink:title=" ">
<path fill="none" stroke="#63b8ff" d="M43.7,-56.34C41.72,-49.56 39.02,-40.3 36.57,-31.94"/>
<polygon fill="#63b8ff" stroke="#63b8ff" points="39.99,-31.15 33.82,-22.53 33.27,-33.11 39.99,-31.15"/>
</a>
</g>
</g>
<!-- Node6&#45;&gt;Node4 -->
<g id="edge6_Node000006_Node000004" class="edge">
<title>Node6&#45;&gt;Node4</title>
<g id="a_edge6_Node000006_Node000004"><a xlink:title=" ">
<path fill="none" stroke="#63b8ff" d="M228.68,-56.34C208.53,-47.72 178.96,-35.07 156.31,-25.38"/>
<polygon fill="#63b8ff" stroke="#63b8ff" points="157.78,-22.21 147.21,-21.49 155.03,-28.64 157.78,-22.21"/>
</a>
</g>
</g>
<!-- Node7&#45;&gt;Node4 -->
<g id="edge8_Node000007_Node000004" class="edge">
<title>Node7&#45;&gt;Node4</title>
<g id="a_edge8_Node000007_Node000004"><a xlink:title=" ">
<path fill="none" stroke="#63b8ff" d="M158.88,-56.34C153.13,-49.02 145.1,-38.79 138.15,-29.94"/>
<polygon fill="#63b8ff" stroke="#63b8ff" points="141.05,-27.97 132.12,-22.27 135.54,-32.3 141.05,-27.97"/>
</a>
</g>
</g>
<!-- Node8&#45;&gt;Node6 -->
<g id="edge12_Node000008_Node000006" class="edge">
<title>Node8&#45;&gt;Node6</title>
<g id="a_edge12_Node000008_Node000006"><a xlink:title=" ">
<path fill="none" stroke="#63b8ff" d="M244.17,-113.09C245.27,-106.39 246.77,-97.26 248.14,-88.98"/>
<polygon fill="#63b8ff" stroke="#63b8ff" points="251.55,-89.76 249.72,-79.32 244.65,-88.62 251.55,-89.76"/>
</a>
</g>
</g>
</g>
</svg>
