<?xml version="1.0" encoding="UTF-8" standalone="no"?>
<!DOCTYPE svg PUBLIC "-//W3C//DTD SVG 1.1//EN"
 "http://www.w3.org/Graphics/SVG/1.1/DTD/svg11.dtd">
<!-- Generated by graphviz version 14.1.2 (0)
 -->
<!-- Title: src/ModelImpl.hpp Pages: 1 -->
<svg width="279pt" height="142pt"
 viewBox="0.00 0.00 279.00 142.00" xmlns="http://www.w3.org/2000/svg" xmlns:xlink="http://www.w3.org/1999/xlink">
<g id="graph0" class="graph" transform="scale(1 1) rotate(0) translate(4 138.25)">
<title>src/ModelImpl.hpp</title>
<!-- Node1 -->
<g id="Node000001" class="node">
<title>Node1</title>
<g id="a_Node000001"><a xlink:title=" ">
<polygon fill="#999999" stroke="#666666" points="188.74,-134.25 82.74,-134.25 82.74,-113.5 188.74,-113.5 188.74,-134.25"/>
<text xml:space="preserve" text-anchor="middle" x="135.74" y="-120.75" font-family="Helvetica,sans-Serif" font-size="10.00">src/ModelImpl.hpp</text>
</a>
</g>
</g>
<!-- Node2 -->
<g id="Node000002" class="node">
<title>Node2</title>
<g id="a_Node000002"><a xlink:href="Model_8hpp.html" target="_top" xlink:title=" ">
<polygon fill="white" stroke="#666666" points="250.24,-77.5 183.24,-77.5 183.24,-56.75 250.24,-56.75 250.24,-77.5"/>
<text xml:space="preserve" text-anchor="middle" x="216.74" y="-64" font-family="Helvetica,sans-Serif" font-size="10.00">Model.hpp</text>
</a>
</g>
</g>
<!-- Node1&#45;&gt;Node2 -->
<g id="edge1_Node000001_Node000002" class="edge">
<title>Node1&#45;&gt;Node2</title>
<g id="a_edge1_Node000001_Node000002"><a xlink:title=" ">
<path fill="none" stroke="#63b8ff" d="M150.22,-113.09C162.08,-105.07 179.11,-93.56 192.97,-84.19"/>
<polygon fill="#63b8ff" stroke="#63b8ff" points="194.8,-87.18 201.13,-78.68 190.88,-81.38 194.8,-87.18"/>
</a>
</g>
</g>
<!-- Node3 -->
<g id="Node000003" class="node">
<title>Node3</title>
<g id="a_Node000003"><a xlink:title=" ">
<polygon fill="#e0e0e0" stroke="#999999" points="115.61,-20.75 71.86,-20.75 71.86,0 115.61,0 115.61,-20.75"/>
<text xml:space="preserve" text-anchor="middle" x="93.74" y="-7.25" font-family="Helvetica,sans-Serif" font-size="10.00">string</text>
</a>
</g>
</g>
<!-- Node1&#45;&gt;Node3 -->
<g id="edge9_Node000001_Node000003" class="edge">
<title>Node1&#45;&gt;Node3</title>
<g id="a_edge9_Node000001_Node000003"><a xlink:title=" ">
<path fill="none" stroke="#63b8ff" d="M82.31,-118.77C54.34,-113.58 22.33,-102.21 4.74,-77.5 -13.59,-51.76 28.18,-31.84 60.51,-20.86"/>
<polygon fill="#63b8ff" stroke="#63b8ff" points="61.54,-24.21 70,-17.82 59.41,-17.54 61.54,-24.21"/>
</a>
</g>
</g>
<!-- Node4 -->
<g id="Node000004" class="node">
<title>Node4</title>
<g id="a_Node000004"><a xlink:title=" ">
<polygon fill="#e0e0e0" stroke="#999999" points="271.11,-20.75 224.36,-20.75 224.36,0 271.11,0 271.11,-20.75"/>
<text xml:space="preserve" text-anchor="middle" x="247.74" y="-7.25" font-family="Helvetica,sans-Serif" font-size="10.00">vector</text>
</a>
</g>
</g>
<!-- Node1&#45;&gt;Node4 -->
<g id="edge8_Node000001_Node000004" class="edge">
<title>Node1&#45;&gt;Node4</title>
<g id="a_edge8_Node000001_Node000004"><a xlink:title=" ">
<path fill="none" stroke="#63b8ff" d="M188.93,-117.44C214.81,-111.8 243.72,-100.42 259.74,-77.5 269.23,-63.92 264.5,-45.05 258.4,-30.95"/>
<polygon fill="#63b8ff" stroke="#63b8ff" points="261.67,-29.65 254.13,-22.21 255.38,-32.73 261.67,-29.65"/>
</a>
</g>
</g>
<!-- Node5 -->
<g id="Node000005" class="node">
<title>Node5</title>
<g id="a_Node000005"><a xlink:href="System_8hpp.html" target="_top" xlink:title="Interface abstrata que representa um sistema do simulador.">
<polygon fill="white" stroke="#666666" points="87.61,-77.5 13.86,-77.5 13.86,-56.75 87.61,-56.75 87.61,-77.5"/>
<text xml:space="preserve" text-anchor="middle" x="50.74" y="-64" font-family="Helvetica,sans-Serif" font-size="10.00">System.hpp</text>
</a>
</g>
</g>
<!-- Node1&#45;&gt;Node5 -->
<g id="edge4_Node000001_Node000005" class="edge">
<title>Node1&#45;&gt;Node5</title>
<g id="a_edge4_Node000001_Node000005"><a xlink:title=" ">
<path fill="none" stroke="#63b8ff" d="M120.54,-113.09C107.97,-104.99 89.88,-93.33 75.26,-83.92"/>
<polygon fill="#63b8ff" stroke="#63b8ff" points="77.38,-81.12 67.08,-78.65 73.59,-87.01 77.38,-81.12"/>
</a>
</g>
</g>
<!-- Node6 -->
<g id="Node000006" class="node">
<title>Node6</title>
<g id="a_Node000006"><a xlink:href="Flow_8hpp.html" target="_top" xlink:title="Interface abstrata que representa um fluxo entre sistemas.">
<polygon fill="white" stroke="#666666" points="165.49,-77.5 105.99,-77.5 105.99,-56.75 165.49,-56.75 165.49,-77.5"/>
<text xml:space="preserve" text-anchor="middle" x="135.74" y="-64" font-family="Helvetica,sans-Serif" font-size="10.00">Flow.hpp</text>
</a>
</g>
</g>
<!-- Node1&#45;&gt;Node6 -->
<g id="edge6_Node000001_Node000006" class="edge">
<title>Node1&#45;&gt;Node6</title>
<g id="a_edge6_Node000001_Node000006"><a xlink:title=" ">
<path fill="none" stroke="#63b8ff" d="M135.74,-113.09C135.74,-106.47 135.74,-97.47 135.74,-89.27"/>
<polygon fill="#63b8ff" stroke="#63b8ff" points="139.24,-89.34 135.74,-79.34 132.24,-89.34 139.24,-89.34"/>
</a>
</g>
</g>
<!-- Node2&#45;&gt;Node3 -->
<g id="edge2_Node000002_Node000003" class="edge">
<title>Node2&#45;&gt;Node3</title>
<g id="a_edge2_Node000002_Node000003"><a xlink:title=" ">
<path fill="none" stroke="#63b8ff" d="M194.75,-56.34C175.6,-47.81 147.58,-35.34 125.91,-25.69"/>
<polygon fill="#63b8ff" stroke="#63b8ff" points="127.48,-22.56 116.92,-21.69 124.63,-28.96 127.48,-22.56"/>
</a>
</g>
</g>
<!-- Node2&#45;&gt;Node4 -->
<g id="edge3_Node000002_Node000004" class="edge">
<title>Node2&#45;&gt;Node4</title>
<g id="a_edge3_Node000002_Node000004"><a xlink:title=" ">
<path fill="none" stroke="#63b8ff" d="M222.28,-56.34C226.25,-49.33 231.73,-39.66 236.58,-31.08"/>
<polygon fill="#63b8ff" stroke="#63b8ff" points="239.62,-32.82 241.5,-22.4 233.53,-29.37 239.62,-32.82"/>
</a>
</g>
</g>
<!-- Node5&#45;&gt;Node3 -->
<g id="edge5_Node000005_Node000003" class="edge">
<title>Node5&#45;&gt;Node3</title>
<g id="a_edge5_Node000005_Node000003"><a xlink:title=" ">
<path fill="none" stroke="#63b8ff" d="M58.43,-56.34C64.17,-49.02 72.21,-38.79 79.16,-29.94"/>
<polygon fill="#63b8ff" stroke="#63b8ff" points="81.76,-32.3 85.18,-22.27 76.25,-27.97 81.76,-32.3"/>
</a>
</g>
</g>
<!-- Node6&#45;&gt;Node3 -->
<g id="edge7_Node000006_Node000003" class="edge">
<title>Node6&#45;&gt;Node3</title>
<g id="a_edge7_Node000006_Node000003"><a xlink:title=" ">
<path fill="none" stroke="#63b8ff" d="M128.23,-56.34C122.62,-49.02 114.77,-38.79 107.98,-29.94"/>
<polygon fill="#63b8ff" stroke="#63b8ff" points="110.97,-28.08 102.1,-22.28 105.41,-32.34 110.97,-28.08"/>
</a>
</g>
</g>
</g>
</svg>
