<?xml version="1.0" encoding="UTF-8" standalone="no"?>
<!DOCTYPE svg PUBLIC "-//W3C//DTD SVG 1.1//EN"
 "http://www.w3.org/Graphics/SVG/1.1/DTD/svg11.dtd">
<!-- Generated by graphviz version 15.0.0 (20260523.1842)
 -->
<!-- Title: src/model.hpp Pages: 1 -->
<svg width="198pt" height="196pt"
 viewBox="0.00 0.00 198.00 196.00" xmlns="http://www.w3.org/2000/svg" xmlns:xlink="http://www.w3.org/1999/xlink">
<g id="graph0" class="graph" transform="scale(1 1) rotate(0) translate(4 192)">
<title>src/model.hpp</title>
<!-- Node1 -->
<g id="Node000001" class="node">
<title>Node1</title>
<g id="a_Node000001"><a xlink:title="Declaração da classe Model, responsável por gerenciar e executar a simulação.">
<polygon fill="#999999" stroke="#666666" points="129.25,-188 51.75,-188 51.75,-168 129.25,-168 129.25,-188"/>
<text xml:space="preserve" text-anchor="middle" x="90.5" y="-174.5" font-family="Helvetica,sans-Serif" font-size="10.00">src/model.hpp</text>
</a>
</g>
</g>
<!-- Node2 -->
<g id="Node000002" class="node">
<title>Node2</title>
<g id="a_Node000002"><a xlink:title=" ">
<polygon fill="#e0e0e0" stroke="#999999" points="43,-132 0,-132 0,-112 43,-112 43,-132"/>
<text xml:space="preserve" text-anchor="middle" x="21.5" y="-118.5" font-family="Helvetica,sans-Serif" font-size="10.00">vector</text>
</a>
</g>
</g>
<!-- Node1&#45;&gt;Node2 -->
<g id="edge1_Node000001_Node000002" class="edge">
<title>Node1&#45;&gt;Node2</title>
<g id="a_edge1_Node000001_Node000002"><a xlink:title=" ">
<path fill="none" stroke="#63b8ff" d="M78.48,-167.59C68.49,-159.77 54.04,-148.46 42.19,-139.19"/>
<polygon fill="#63b8ff" stroke="#63b8ff" points="44.61,-136.64 34.57,-133.23 40.29,-142.15 44.61,-136.64"/>
</a>
</g>
</g>
<!-- Node3 -->
<g id="Node000003" class="node">
<title>Node3</title>
<g id="a_Node000003"><a xlink:title=" ">
<polygon fill="#e0e0e0" stroke="#999999" points="153.5,-20 113.5,-20 113.5,0 153.5,0 153.5,-20"/>
<text xml:space="preserve" text-anchor="middle" x="133.5" y="-6.5" font-family="Helvetica,sans-Serif" font-size="10.00">string</text>
</a>
</g>
</g>
<!-- Node1&#45;&gt;Node3 -->
<g id="edge2_Node000001_Node000003" class="edge">
<title>Node1&#45;&gt;Node3</title>
<g id="a_edge2_Node000001_Node000003"><a xlink:title=" ">
<path fill="none" stroke="#63b8ff" d="M88.26,-167.76C83.66,-146.91 74.86,-95 90.5,-56 94.87,-45.1 103.28,-35.34 111.51,-27.72"/>
<polygon fill="#63b8ff" stroke="#63b8ff" points="113.68,-30.47 119.02,-21.33 109.14,-25.15 113.68,-30.47"/>
</a>
</g>
</g>
<!-- Node4 -->
<g id="Node000004" class="node">
<title>Node4</title>
<g id="a_Node000004"><a xlink:href="_system_8hpp_source.html" target="_top" xlink:title=" ">
<polygon fill="white" stroke="#666666" points="167.75,-76 99.25,-76 99.25,-56 167.75,-56 167.75,-76"/>
<text xml:space="preserve" text-anchor="middle" x="133.5" y="-62.5" font-family="Helvetica,sans-Serif" font-size="10.00">System.hpp</text>
</a>
</g>
</g>
<!-- Node1&#45;&gt;Node4 -->
<g id="edge3_Node000001_Node000004" class="edge">
<title>Node1&#45;&gt;Node4</title>
<g id="a_edge3_Node000001_Node000004"><a xlink:title=" ">
<path fill="none" stroke="#63b8ff" d="M94.17,-167.62C101.12,-149.84 116.35,-110.88 125.68,-87"/>
<polygon fill="#63b8ff" stroke="#63b8ff" points="128.91,-88.35 129.29,-77.76 122.39,-85.8 128.91,-88.35"/>
</a>
</g>
</g>
<!-- Node5 -->
<g id="Node000005" class="node">
<title>Node5</title>
<g id="a_Node000005"><a xlink:href="flow_8hpp_source.html" target="_top" xlink:title=" ">
<polygon fill="white" stroke="#666666" points="189.5,-132 137.5,-132 137.5,-112 189.5,-112 189.5,-132"/>
<text xml:space="preserve" text-anchor="middle" x="163.5" y="-118.5" font-family="Helvetica,sans-Serif" font-size="10.00">flow.hpp</text>
</a>
</g>
</g>
<!-- Node1&#45;&gt;Node5 -->
<g id="edge5_Node000001_Node000005" class="edge">
<title>Node1&#45;&gt;Node5</title>
<g id="a_edge5_Node000001_Node000005"><a xlink:title=" ">
<path fill="none" stroke="#63b8ff" d="M103.22,-167.59C113.89,-159.7 129.38,-148.24 141.98,-138.92"/>
<polygon fill="#63b8ff" stroke="#63b8ff" points="143.76,-141.96 149.71,-133.2 139.59,-136.33 143.76,-141.96"/>
</a>
</g>
</g>
<!-- Node4&#45;&gt;Node3 -->
<g id="edge4_Node000004_Node000003" class="edge">
<title>Node4&#45;&gt;Node3</title>
<g id="a_edge4_Node000004_Node000003"><a xlink:title=" ">
<path fill="none" stroke="#63b8ff" d="M133.5,-55.59C133.5,-49.01 133.5,-39.96 133.5,-31.73"/>
<polygon fill="#63b8ff" stroke="#63b8ff" points="137,-31.81 133.5,-21.81 130,-31.81 137,-31.81"/>
</a>
</g>
</g>
<!-- Node5&#45;&gt;Node3 -->
<g id="edge6_Node000005_Node000003" class="edge">
<title>Node5&#45;&gt;Node3</title>
<g id="a_edge6_Node000005_Node000003"><a xlink:title=" ">
<path fill="none" stroke="#63b8ff" d="M168.51,-111.87C174.86,-99.01 184.12,-75.01 176.5,-56 172.13,-45.1 163.72,-35.34 155.49,-27.72"/>
<polygon fill="#63b8ff" stroke="#63b8ff" points="157.86,-25.15 147.98,-21.33 153.32,-30.47 157.86,-25.15"/>
</a>
</g>
</g>
<!-- Node5&#45;&gt;Node4 -->
<g id="edge7_Node000005_Node000004" class="edge">
<title>Node5&#45;&gt;Node4</title>
<g id="a_edge7_Node000005_Node000004"><a xlink:title=" ">
<path fill="none" stroke="#63b8ff" d="M158.27,-111.59C154.4,-104.63 148.99,-94.89 144.22,-86.29"/>
<polygon fill="#63b8ff" stroke="#63b8ff" points="147.32,-84.66 139.4,-77.62 141.2,-88.06 147.32,-84.66"/>
</a>
</g>
</g>
</g>
</svg>
