<?xml version="1.0" encoding="UTF-8" standalone="no"?>
<!DOCTYPE svg PUBLIC "-//W3C//DTD SVG 1.1//EN"
 "http://www.w3.org/Graphics/SVG/1.1/DTD/svg11.dtd">
<!-- Generated by graphviz version 2.43.0 (0)
 -->
<!-- Title: src/model.hpp Pages: 1 -->
<svg width="207pt" height="192pt"
 viewBox="0.00 0.00 207.00 192.00" xmlns="http://www.w3.org/2000/svg" xmlns:xlink="http://www.w3.org/1999/xlink">
<g id="graph0" class="graph" transform="scale(1 1) rotate(0) translate(4 188)">
<title>src/model.hpp</title>
<!-- Node1 -->
<g id="Node000001" class="node">
<title>Node1</title>
<g id="a_Node000001"><a xlink:title="Declaração da classe Model, responsável por gerenciar e executar a simulação.">
<polygon fill="#999999" stroke="#666666" points="137.5,-184 51.5,-184 51.5,-165 137.5,-165 137.5,-184"/>
<text text-anchor="middle" x="94.5" y="-172" font-family="Helvetica,sans-Serif" font-size="10.00">src/model.hpp</text>
</a>
</g>
</g>
<!-- Node2 -->
<g id="Node000002" class="node">
<title>Node2</title>
<g id="a_Node000002"><a xlink:title=" ">
<polygon fill="#e0e0e0" stroke="#999999" points="47,-129 0,-129 0,-110 47,-110 47,-129"/>
<text text-anchor="middle" x="23.5" y="-117" font-family="Helvetica,sans-Serif" font-size="10.00">vector</text>
</a>
</g>
</g>
<!-- Node1&#45;&gt;Node2 -->
<g id="edge1_Node000001_Node000002" class="edge">
<title>Node1&#45;&gt;Node2</title>
<g id="a_edge1_Node000001_Node000002"><a xlink:title=" ">
<path fill="none" stroke="#63b8ff" d="M83.09,-164.98C72.39,-157 56.16,-144.88 43.34,-135.31"/>
<polygon fill="#63b8ff" stroke="#63b8ff" points="45.22,-132.35 35.11,-129.17 41.03,-137.96 45.22,-132.35"/>
</a>
</g>
</g>
<!-- Node3 -->
<g id="Node000003" class="node">
<title>Node3</title>
<g id="a_Node000003"><a xlink:title=" ">
<polygon fill="#e0e0e0" stroke="#999999" points="162.5,-19 118.5,-19 118.5,0 162.5,0 162.5,-19"/>
<text text-anchor="middle" x="140.5" y="-7" font-family="Helvetica,sans-Serif" font-size="10.00">string</text>
</a>
</g>
</g>
<!-- Node1&#45;&gt;Node3 -->
<g id="edge2_Node000001_Node000003" class="edge">
<title>Node1&#45;&gt;Node3</title>
<g id="a_edge2_Node000001_Node000003"><a xlink:title=" ">
<path fill="none" stroke="#63b8ff" d="M92.26,-164.71C87.56,-144.41 78.36,-93.07 94.5,-55 99.48,-43.25 109.25,-33.09 118.51,-25.45"/>
<polygon fill="#63b8ff" stroke="#63b8ff" points="120.9,-28.03 126.72,-19.18 116.65,-22.47 120.9,-28.03"/>
</a>
</g>
</g>
<!-- Node4 -->
<g id="Node000004" class="node">
<title>Node4</title>
<g id="a_Node000004"><a xlink:href="System_8hpp_source.html" target="_top" xlink:title=" ">
<polygon fill="white" stroke="#666666" points="177.5,-74 103.5,-74 103.5,-55 177.5,-55 177.5,-74"/>
<text text-anchor="middle" x="140.5" y="-62" font-family="Helvetica,sans-Serif" font-size="10.00">System.hpp</text>
</a>
</g>
</g>
<!-- Node1&#45;&gt;Node4 -->
<g id="edge3_Node000001_Node000004" class="edge">
<title>Node1&#45;&gt;Node4</title>
<g id="a_edge3_Node000001_Node000004"><a xlink:title=" ">
<path fill="none" stroke="#63b8ff" d="M98.26,-164.66C105.78,-147.01 122.79,-107.09 132.78,-83.64"/>
<polygon fill="#63b8ff" stroke="#63b8ff" points="136.11,-84.73 136.81,-74.16 129.67,-81.99 136.11,-84.73"/>
</a>
</g>
</g>
<!-- Node5 -->
<g id="Node000005" class="node">
<title>Node5</title>
<g id="a_Node000005"><a xlink:href="flow_8hpp_source.html" target="_top" xlink:title=" ">
<polygon fill="white" stroke="#666666" points="199,-129 142,-129 142,-110 199,-110 199,-129"/>
<text text-anchor="middle" x="170.5" y="-117" font-family="Helvetica,sans-Serif" font-size="10.00">flow.hpp</text>
</a>
</g>
</g>
<!-- Node1&#45;&gt;Node5 -->
<g id="edge5_Node000001_Node000005" class="edge">
<title>Node1&#45;&gt;Node5</title>
<g id="a_edge5_Node000001_Node000005"><a xlink:title=" ">
<path fill="none" stroke="#63b8ff" d="M106.71,-164.98C118.28,-156.92 135.88,-144.65 149.66,-135.03"/>
<polygon fill="#63b8ff" stroke="#63b8ff" points="151.87,-137.76 158.07,-129.17 147.86,-132.02 151.87,-137.76"/>
</a>
</g>
</g>
<!-- Node4&#45;&gt;Node3 -->
<g id="edge4_Node000004_Node000003" class="edge">
<title>Node4&#45;&gt;Node3</title>
<g id="a_edge4_Node000004_Node000003"><a xlink:title=" ">
<path fill="none" stroke="#63b8ff" d="M140.5,-54.75C140.5,-47.8 140.5,-37.85 140.5,-29.13"/>
<polygon fill="#63b8ff" stroke="#63b8ff" points="144,-29.09 140.5,-19.09 137,-29.09 144,-29.09"/>
</a>
</g>
</g>
<!-- Node5&#45;&gt;Node3 -->
<g id="edge6_Node000005_Node000003" class="edge">
<title>Node5&#45;&gt;Node3</title>
<g id="a_edge6_Node000005_Node000003"><a xlink:title=" ">
<path fill="none" stroke="#63b8ff" d="M176.25,-109.6C183.58,-97.05 194.4,-73.63 186.5,-55 181.52,-43.25 171.75,-33.09 162.49,-25.45"/>
<polygon fill="#63b8ff" stroke="#63b8ff" points="164.35,-22.47 154.28,-19.18 160.1,-28.03 164.35,-22.47"/>
</a>
</g>
</g>
<!-- Node5&#45;&gt;Node4 -->
<g id="edge7_Node000005_Node000004" class="edge">
<title>Node5&#45;&gt;Node4</title>
<g id="a_edge7_Node000005_Node000004"><a xlink:title=" ">
<path fill="none" stroke="#63b8ff" d="M165.55,-109.75C161.44,-102.49 155.47,-91.95 150.4,-82.98"/>
<polygon fill="#63b8ff" stroke="#63b8ff" points="153.33,-81.07 145.36,-74.09 147.24,-84.52 153.33,-81.07"/>
</a>
</g>
</g>
</g>
</svg>
