<?xml version="1.0" encoding="UTF-8" standalone="no"?>
<!DOCTYPE svg PUBLIC "-//W3C//DTD SVG 1.1//EN"
 "http://www.w3.org/Graphics/SVG/1.1/DTD/svg11.dtd">
<!-- Generated by graphviz version 14.1.2 (0)
 -->
<!-- Title: src/SystemImpl.cpp Pages: 1 -->
<svg width="120pt" height="199pt"
 viewBox="0.00 0.00 120.00 199.00" xmlns="http://www.w3.org/2000/svg" xmlns:xlink="http://www.w3.org/1999/xlink">
<g id="graph0" class="graph" transform="scale(1 1) rotate(0) translate(4 195)">
<title>src/SystemImpl.cpp</title>
<!-- Node1 -->
<g id="Node000001" class="node">
<title>Node1</title>
<g id="a_Node000001"><a xlink:title=" ">
<polygon fill="#999999" stroke="#666666" points="112,-191 0,-191 0,-170.25 112,-170.25 112,-191"/>
<text xml:space="preserve" text-anchor="middle" x="56" y="-177.5" font-family="Helvetica,sans-Serif" font-size="10.00">src/SystemImpl.cpp</text>
</a>
</g>
</g>
<!-- Node2 -->
<g id="Node000002" class="node">
<title>Node2</title>
<g id="a_Node000002"><a xlink:href="SystemImpl_8hpp.html" target="_top" xlink:title="Implementação concreta da interface System.">
<polygon fill="white" stroke="#666666" points="103.75,-134.25 8.25,-134.25 8.25,-113.5 103.75,-113.5 103.75,-134.25"/>
<text xml:space="preserve" text-anchor="middle" x="56" y="-120.75" font-family="Helvetica,sans-Serif" font-size="10.00">SystemImpl.hpp</text>
</a>
</g>
</g>
<!-- Node1&#45;&gt;Node2 -->
<g id="edge1_Node000001_Node000002" class="edge">
<title>Node1&#45;&gt;Node2</title>
<g id="a_edge1_Node000001_Node000002"><a xlink:title=" ">
<path fill="none" stroke="#63b8ff" d="M56,-169.84C56,-163.22 56,-154.22 56,-146.02"/>
<polygon fill="#63b8ff" stroke="#63b8ff" points="59.5,-146.09 56,-136.09 52.5,-146.09 59.5,-146.09"/>
</a>
</g>
</g>
<!-- Node3 -->
<g id="Node000003" class="node">
<title>Node3</title>
<g id="a_Node000003"><a xlink:href="System_8hpp.html" target="_top" xlink:title="Interface abstrata que representa um sistema do simulador.">
<polygon fill="white" stroke="#666666" points="92.88,-77.5 19.13,-77.5 19.13,-56.75 92.88,-56.75 92.88,-77.5"/>
<text xml:space="preserve" text-anchor="middle" x="56" y="-64" font-family="Helvetica,sans-Serif" font-size="10.00">System.hpp</text>
</a>
</g>
</g>
<!-- Node2&#45;&gt;Node3 -->
<g id="edge2_Node000002_Node000003" class="edge">
<title>Node2&#45;&gt;Node3</title>
<g id="a_edge2_Node000002_Node000003"><a xlink:title=" ">
<path fill="none" stroke="#63b8ff" d="M56,-113.09C56,-106.47 56,-97.47 56,-89.27"/>
<polygon fill="#63b8ff" stroke="#63b8ff" points="59.5,-89.34 56,-79.34 52.5,-89.34 59.5,-89.34"/>
</a>
</g>
</g>
<!-- Node4 -->
<g id="Node000004" class="node">
<title>Node4</title>
<g id="a_Node000004"><a xlink:title=" ">
<polygon fill="#e0e0e0" stroke="#999999" points="77.88,-20.75 34.13,-20.75 34.13,0 77.88,0 77.88,-20.75"/>
<text xml:space="preserve" text-anchor="middle" x="56" y="-7.25" font-family="Helvetica,sans-Serif" font-size="10.00">string</text>
</a>
</g>
</g>
<!-- Node3&#45;&gt;Node4 -->
<g id="edge3_Node000003_Node000004" class="edge">
<title>Node3&#45;&gt;Node4</title>
<g id="a_edge3_Node000003_Node000004"><a xlink:title=" ">
<path fill="none" stroke="#63b8ff" d="M56,-56.34C56,-49.72 56,-40.72 56,-32.52"/>
<polygon fill="#63b8ff" stroke="#63b8ff" points="59.5,-32.59 56,-22.59 52.5,-32.59 59.5,-32.59"/>
</a>
</g>
</g>
</g>
</svg>
