<?xml version="1.0" encoding="UTF-8" standalone="no"?>
<!DOCTYPE svg PUBLIC "-//W3C//DTD SVG 1.1//EN"
 "http://www.w3.org/Graphics/SVG/1.1/DTD/svg11.dtd">
<!-- Generated by graphviz version 14.1.2 (0)
 -->
<!-- Title: src/System.hpp Pages: 1 -->
<svg width="1384pt" height="281pt"
 viewBox="0.00 0.00 1384.00 281.00" xmlns="http://www.w3.org/2000/svg" xmlns:xlink="http://www.w3.org/1999/xlink">
<g id="graph0" class="graph" transform="scale(1 1) rotate(0) translate(4 277.25)">
<title>src/System.hpp</title>
<!-- Node1 -->
<g id="Node000001" class="node">
<title>Node1</title>
<g id="a_Node000001"><a xlink:title="Interface abstrata que representa um sistema do simulador.">
<polygon fill="#999999" stroke="#666666" points="980.62,-273.25 889.62,-273.25 889.62,-252.5 980.62,-252.5 980.62,-273.25"/>
<text xml:space="preserve" text-anchor="middle" x="935.12" y="-259.75" font-family="Helvetica,sans-Serif" font-size="10.00">src/System.hpp</text>
</a>
</g>
</g>
<!-- Node2 -->
<g id="Node000002" class="node">
<title>Node2</title>
<g id="a_Node000002"><a xlink:href="FlowImpl_8hpp.html" target="_top" xlink:title="Implementação concreta da interface Flow.">
<polygon fill="white" stroke="#666666" points="578.75,-216.5 479.5,-216.5 479.5,-195.75 578.75,-195.75 578.75,-216.5"/>
<text xml:space="preserve" text-anchor="middle" x="529.12" y="-203" font-family="Helvetica,sans-Serif" font-size="10.00">src/FlowImpl.hpp</text>
</a>
</g>
</g>
<!-- Node1&#45;&gt;Node2 -->
<g id="edge1_Node000001_Node000002" class="edge">
<title>Node1&#45;&gt;Node2</title>
<g id="a_edge1_Node000001_Node000002"><a xlink:title=" ">
<path fill="none" stroke="#63b8ff" d="M878.06,-254.18C798.34,-243.43 654.94,-224.09 579.17,-213.87"/>
<polygon fill="#63b8ff" stroke="#63b8ff" points="877.46,-257.63 887.84,-255.5 878.4,-250.69 877.46,-257.63"/>
</a>
</g>
</g>
<!-- Node15 -->
<g id="Node000015" class="node">
<title>Node15</title>
<g id="a_Node000015"><a xlink:href="ModelImpl_8hpp.html" target="_top" xlink:title="Implementação concreta da interface Model.">
<polygon fill="white" stroke="#666666" points="1236.12,-216.5 1130.12,-216.5 1130.12,-195.75 1236.12,-195.75 1236.12,-216.5"/>
<text xml:space="preserve" text-anchor="middle" x="1183.12" y="-203" font-family="Helvetica,sans-Serif" font-size="10.00">src/ModelImpl.hpp</text>
</a>
</g>
</g>
<!-- Node1&#45;&gt;Node15 -->
<g id="edge16_Node000001_Node000015" class="edge">
<title>Node1&#45;&gt;Node15</title>
<g id="a_edge16_Node000001_Node000015"><a xlink:title=" ">
<path fill="none" stroke="#63b8ff" d="M990.97,-249.55C1035.53,-239.71 1097.11,-226.11 1138.44,-216.99"/>
<polygon fill="#63b8ff" stroke="#63b8ff" points="990.24,-246.12 981.23,-251.7 991.75,-252.96 990.24,-246.12"/>
</a>
</g>
</g>
<!-- Node17 -->
<g id="Node000017" class="node">
<title>Node17</title>
<g id="a_Node000017"><a xlink:href="SystemImpl_8hpp.html" target="_top" xlink:title="Implementação concreta da interface System.">
<polygon fill="white" stroke="#666666" points="991.5,-216.5 878.75,-216.5 878.75,-195.75 991.5,-195.75 991.5,-216.5"/>
<text xml:space="preserve" text-anchor="middle" x="935.12" y="-203" font-family="Helvetica,sans-Serif" font-size="10.00">src/SystemImpl.hpp</text>
</a>
</g>
</g>
<!-- Node1&#45;&gt;Node17 -->
<g id="edge20_Node000001_Node000017" class="edge">
<title>Node1&#45;&gt;Node17</title>
<g id="a_edge20_Node000001_Node000017"><a xlink:title=" ">
<path fill="none" stroke="#63b8ff" d="M935.12,-240.63C935.12,-232.41 935.12,-223.43 935.12,-216.83"/>
<polygon fill="#63b8ff" stroke="#63b8ff" points="931.63,-240.57 935.13,-250.57 938.63,-240.57 931.63,-240.57"/>
</a>
</g>
</g>
<!-- Node3 -->
<g id="Node000003" class="node">
<title>Node3</title>
<g id="a_Node000003"><a xlink:href="FlowImpl_8cpp.html" target="_top" xlink:title=" ">
<polygon fill="white" stroke="#666666" points="428.38,-159.75 329.88,-159.75 329.88,-139 428.38,-139 428.38,-159.75"/>
<text xml:space="preserve" text-anchor="middle" x="379.12" y="-146.25" font-family="Helvetica,sans-Serif" font-size="10.00">src/FlowImpl.cpp</text>
</a>
</g>
</g>
<!-- Node2&#45;&gt;Node3 -->
<g id="edge2_Node000002_Node000003" class="edge">
<title>Node2&#45;&gt;Node3</title>
<g id="a_edge2_Node000002_Node000003"><a xlink:title=" ">
<path fill="none" stroke="#63b8ff" d="M491.83,-191.51C465.16,-181.78 429.89,-168.9 405.96,-160.17"/>
<polygon fill="#63b8ff" stroke="#63b8ff" points="490.29,-194.68 500.89,-194.82 492.69,-188.1 490.29,-194.68"/>
</a>
</g>
</g>
<!-- Node4 -->
<g id="Node000004" class="node">
<title>Node4</title>
<g id="a_Node000004"><a xlink:href="Complex_8hpp.html" target="_top" xlink:title=" ">
<polygon fill="white" stroke="#666666" points="312.25,-159.75 162,-159.75 162,-139 312.25,-139 312.25,-159.75"/>
<text xml:space="preserve" text-anchor="middle" x="237.12" y="-146.25" font-family="Helvetica,sans-Serif" font-size="10.00">test/funcional/Complex.hpp</text>
</a>
</g>
</g>
<!-- Node2&#45;&gt;Node4 -->
<g id="edge3_Node000002_Node000004" class="edge">
<title>Node2&#45;&gt;Node4</title>
<g id="a_edge3_Node000002_Node000004"><a xlink:title=" ">
<path fill="none" stroke="#63b8ff" d="M468.03,-193.67C415.28,-183.78 339.86,-169.64 289.74,-160.24"/>
<polygon fill="#63b8ff" stroke="#63b8ff" points="467.3,-197.09 477.77,-195.5 468.59,-190.21 467.3,-197.09"/>
</a>
</g>
</g>
<!-- Node9 -->
<g id="Node000009" class="node">
<title>Node9</title>
<g id="a_Node000009"><a xlink:href="Exponential_8hpp.html" target="_top" xlink:title="Declaração da classe Exponential.">
<polygon fill="white" stroke="#666666" points="611.38,-159.75 446.88,-159.75 446.88,-139 611.38,-139 611.38,-159.75"/>
<text xml:space="preserve" text-anchor="middle" x="529.12" y="-146.25" font-family="Helvetica,sans-Serif" font-size="10.00">test/funcional/Exponential.hpp</text>
</a>
</g>
</g>
<!-- Node2&#45;&gt;Node9 -->
<g id="edge8_Node000002_Node000009" class="edge">
<title>Node2&#45;&gt;Node9</title>
<g id="a_edge8_Node000002_Node000009"><a xlink:title=" ">
<path fill="none" stroke="#63b8ff" d="M529.12,-183.88C529.12,-175.66 529.12,-166.68 529.12,-160.08"/>
<polygon fill="#63b8ff" stroke="#63b8ff" points="525.63,-183.82 529.13,-193.82 532.63,-183.82 525.63,-183.82"/>
</a>
</g>
</g>
<!-- Node11 -->
<g id="Node000011" class="node">
<title>Node11</title>
<g id="a_Node000011"><a xlink:href="Logistic_8hpp.html" target="_top" xlink:title=" ">
<polygon fill="white" stroke="#666666" points="144.25,-159.75 0,-159.75 0,-139 144.25,-139 144.25,-159.75"/>
<text xml:space="preserve" text-anchor="middle" x="72.12" y="-146.25" font-family="Helvetica,sans-Serif" font-size="10.00">test/funcional/Logistic.hpp</text>
</a>
</g>
</g>
<!-- Node2&#45;&gt;Node11 -->
<g id="edge11_Node000002_Node000011" class="edge">
<title>Node2&#45;&gt;Node11</title>
<g id="a_edge11_Node000002_Node000011"><a xlink:title=" ">
<path fill="none" stroke="#63b8ff" d="M467.98,-197.8C384.24,-187.77 234.07,-169.78 144.71,-159.07"/>
<polygon fill="#63b8ff" stroke="#63b8ff" points="467.5,-201.27 477.85,-198.98 468.33,-194.32 467.5,-201.27"/>
</a>
</g>
</g>
<!-- Node13 -->
<g id="Node000013" class="node">
<title>Node13</title>
<g id="a_Node000013"><a xlink:href="unit__Flow_8cpp.html" target="_top" xlink:title=" ">
<polygon fill="white" stroke="#666666" points="755.25,-159.75 629,-159.75 629,-139 755.25,-139 755.25,-159.75"/>
<text xml:space="preserve" text-anchor="middle" x="692.12" y="-146.25" font-family="Helvetica,sans-Serif" font-size="10.00">test/unit/unit_Flow.cpp</text>
</a>
</g>
</g>
<!-- Node2&#45;&gt;Node13 -->
<g id="edge14_Node000002_Node000013" class="edge">
<title>Node2&#45;&gt;Node13</title>
<g id="a_edge14_Node000002_Node000013"><a xlink:title=" ">
<path fill="none" stroke="#63b8ff" d="M568.89,-191.77C597.96,-182.01 636.73,-168.98 662.96,-160.17"/>
<polygon fill="#63b8ff" stroke="#63b8ff" points="568.07,-188.35 559.7,-194.85 570.29,-194.99 568.07,-188.35"/>
</a>
</g>
</g>
<!-- Node14 -->
<g id="Node000014" class="node">
<title>Node14</title>
<g id="a_Node000014"><a xlink:href="unit__Model_8cpp.html" target="_top" xlink:title=" ">
<polygon fill="white" stroke="#666666" points="907,-159.75 773.25,-159.75 773.25,-139 907,-139 907,-159.75"/>
<text xml:space="preserve" text-anchor="middle" x="840.12" y="-146.25" font-family="Helvetica,sans-Serif" font-size="10.00">test/unit/unit_Model.cpp</text>
</a>
</g>
</g>
<!-- Node2&#45;&gt;Node14 -->
<g id="edge15_Node000002_Node000014" class="edge">
<title>Node2&#45;&gt;Node14</title>
<g id="a_edge15_Node000002_Node000014"><a xlink:title=" ">
<path fill="none" stroke="#63b8ff" d="M590.35,-194.35C646.71,-184.42 729.63,-169.83 784.24,-160.21"/>
<polygon fill="#63b8ff" stroke="#63b8ff" points="589.82,-190.89 580.58,-196.07 591.04,-197.78 589.82,-190.89"/>
</a>
</g>
</g>
<!-- Node5 -->
<g id="Node000005" class="node">
<title>Node5</title>
<g id="a_Node000005"><a xlink:href="Complex_8cpp.html" target="_top" xlink:title=" ">
<polygon fill="white" stroke="#666666" points="311.88,-96.62 162.38,-96.62 162.38,-75.88 311.88,-75.88 311.88,-96.62"/>
<text xml:space="preserve" text-anchor="middle" x="237.12" y="-83.12" font-family="Helvetica,sans-Serif" font-size="10.00">test/funcional/Complex.cpp</text>
</a>
</g>
</g>
<!-- Node4&#45;&gt;Node5 -->
<g id="edge4_Node000004_Node000005" class="edge">
<title>Node4&#45;&gt;Node5</title>
<g id="a_edge4_Node000004_Node000005"><a xlink:title=" ">
<path fill="none" stroke="#63b8ff" d="M237.12,-127.11C237.12,-116.8 237.12,-104.93 237.12,-96.84"/>
<polygon fill="#63b8ff" stroke="#63b8ff" points="233.63,-127.04 237.13,-137.04 240.63,-127.04 233.63,-127.04"/>
</a>
</g>
</g>
<!-- Node6 -->
<g id="Node000006" class="node">
<title>Node6</title>
<g id="a_Node000006"><a xlink:href="funcional__test_8hpp.html" target="_top" xlink:title="Arquivo contendo as assinaturas dos testes funcionais da simulação.">
<polygon fill="white" stroke="#666666" points="700.5,-103 569.75,-103 569.75,-69.5 700.5,-69.5 700.5,-103"/>
<text xml:space="preserve" text-anchor="start" x="577.75" y="-89.5" font-family="Helvetica,sans-Serif" font-size="10.00">test/funcional/funcional</text>
<text xml:space="preserve" text-anchor="middle" x="635.12" y="-76.75" font-family="Helvetica,sans-Serif" font-size="10.00">_test.hpp</text>
</a>
</g>
</g>
<!-- Node4&#45;&gt;Node6 -->
<g id="edge5_Node000004_Node000006" class="edge">
<title>Node4&#45;&gt;Node6</title>
<g id="a_edge5_Node000004_Node000006"><a xlink:title=" ">
<path fill="none" stroke="#63b8ff" d="M323.73,-137.93C389.14,-129.64 481.01,-117.12 561.12,-103 563.84,-102.52 566.61,-102.02 569.4,-101.49"/>
<polygon fill="#63b8ff" stroke="#63b8ff" points="323.64,-134.42 314.15,-139.14 324.51,-141.36 323.64,-134.42"/>
</a>
</g>
</g>
<!-- Node7 -->
<g id="Node000007" class="node">
<title>Node7</title>
<g id="a_Node000007"><a xlink:href="funcional__test_8cpp.html" target="_top" xlink:title=" ">
<polygon fill="white" stroke="#666666" points="625.5,-33.5 494.75,-33.5 494.75,0 625.5,0 625.5,-33.5"/>
<text xml:space="preserve" text-anchor="start" x="502.75" y="-20" font-family="Helvetica,sans-Serif" font-size="10.00">test/funcional/funcional</text>
<text xml:space="preserve" text-anchor="middle" x="560.12" y="-7.25" font-family="Helvetica,sans-Serif" font-size="10.00">_test.cpp</text>
</a>
</g>
</g>
<!-- Node6&#45;&gt;Node7 -->
<g id="edge6_Node000006_Node000007" class="edge">
<title>Node6&#45;&gt;Node7</title>
<g id="a_edge6_Node000006_Node000007"><a xlink:title=" ">
<path fill="none" stroke="#63b8ff" d="M608.8,-61.56C598.62,-52.4 587.23,-42.15 578.03,-33.87"/>
<polygon fill="#63b8ff" stroke="#63b8ff" points="606.45,-64.15 616.23,-68.24 611.13,-58.95 606.45,-64.15"/>
</a>
</g>
</g>
<!-- Node8 -->
<g id="Node000008" class="node">
<title>Node8</title>
<g id="a_Node000008"><a xlink:href="funcional_2main_8cpp.html" target="_top" xlink:title=" ">
<polygon fill="white" stroke="#666666" points="774.5,-27.12 643.75,-27.12 643.75,-6.38 774.5,-6.38 774.5,-27.12"/>
<text xml:space="preserve" text-anchor="middle" x="709.12" y="-13.62" font-family="Helvetica,sans-Serif" font-size="10.00">test/funcional/main.cpp</text>
</a>
</g>
</g>
<!-- Node6&#45;&gt;Node8 -->
<g id="edge7_Node000006_Node000008" class="edge">
<title>Node6&#45;&gt;Node8</title>
<g id="a_edge7_Node000006_Node000008"><a xlink:title=" ">
<path fill="none" stroke="#63b8ff" d="M661.12,-61.54C673.91,-49.87 688.63,-36.45 698.36,-27.57"/>
<polygon fill="#63b8ff" stroke="#63b8ff" points="658.81,-58.91 653.78,-68.23 663.53,-64.08 658.81,-58.91"/>
</a>
</g>
</g>
<!-- Node9&#45;&gt;Node6 -->
<g id="edge10_Node000009_Node000006" class="edge">
<title>Node9&#45;&gt;Node6</title>
<g id="a_edge10_Node000009_Node000006"><a xlink:title=" ">
<path fill="none" stroke="#63b8ff" d="M555.75,-133.02C571.37,-124.02 591.09,-112.64 606.97,-103.48"/>
<polygon fill="#63b8ff" stroke="#63b8ff" points="554.38,-129.77 547.47,-137.8 557.88,-135.83 554.38,-129.77"/>
</a>
</g>
</g>
<!-- Node10 -->
<g id="Node000010" class="node">
<title>Node10</title>
<g id="a_Node000010"><a xlink:href="Exponential_8cpp.html" target="_top" xlink:title=" ">
<polygon fill="white" stroke="#666666" points="552,-96.62 388.25,-96.62 388.25,-75.88 552,-75.88 552,-96.62"/>
<text xml:space="preserve" text-anchor="middle" x="470.12" y="-83.12" font-family="Helvetica,sans-Serif" font-size="10.00">test/funcional/Exponential.cpp</text>
</a>
</g>
</g>
<!-- Node9&#45;&gt;Node10 -->
<g id="edge9_Node000009_Node000010" class="edge">
<title>Node9&#45;&gt;Node10</title>
<g id="a_edge9_Node000009_Node000010"><a xlink:title=" ">
<path fill="none" stroke="#63b8ff" d="M511.82,-130.45C501.21,-119.46 488.05,-105.82 479.39,-96.84"/>
<polygon fill="#63b8ff" stroke="#63b8ff" points="509.13,-132.7 518.59,-137.47 514.17,-127.84 509.13,-132.7"/>
</a>
</g>
</g>
<!-- Node11&#45;&gt;Node6 -->
<g id="edge13_Node000011_Node000006" class="edge">
<title>Node11&#45;&gt;Node6</title>
<g id="a_edge13_Node000011_Node000006"><a xlink:title=" ">
<path fill="none" stroke="#63b8ff" d="M155.76,-138.77C336.15,-120.9 384.7,-129.46 561.12,-103 563.85,-102.59 566.63,-102.14 569.43,-101.67"/>
<polygon fill="#63b8ff" stroke="#63b8ff" points="155.64,-135.26 146.04,-139.74 156.34,-142.23 155.64,-135.26"/>
</a>
</g>
</g>
<!-- Node12 -->
<g id="Node000012" class="node">
<title>Node12</title>
<g id="a_Node000012"><a xlink:href="Logistic_8cpp.html" target="_top" xlink:title=" ">
<polygon fill="white" stroke="#666666" points="143.88,-96.62 0.38,-96.62 0.38,-75.88 143.88,-75.88 143.88,-96.62"/>
<text xml:space="preserve" text-anchor="middle" x="72.12" y="-83.12" font-family="Helvetica,sans-Serif" font-size="10.00">test/funcional/Logistic.cpp</text>
</a>
</g>
</g>
<!-- Node11&#45;&gt;Node12 -->
<g id="edge12_Node000011_Node000012" class="edge">
<title>Node11&#45;&gt;Node12</title>
<g id="a_edge12_Node000011_Node000012"><a xlink:title=" ">
<path fill="none" stroke="#63b8ff" d="M72.12,-127.11C72.12,-116.8 72.12,-104.93 72.12,-96.84"/>
<polygon fill="#63b8ff" stroke="#63b8ff" points="68.63,-127.04 72.13,-137.04 75.63,-127.04 68.63,-127.04"/>
</a>
</g>
</g>
<!-- Node15&#45;&gt;Node6 -->
<g id="edge18_Node000015_Node000006" class="edge">
<title>Node15&#45;&gt;Node6</title>
<g id="a_edge18_Node000015_Node000006"><a xlink:title=" ">
<path fill="none" stroke="#63b8ff" d="M1247.94,-201.68C1314.9,-195.85 1404.6,-180.3 1366.12,-139 1321.3,-90.89 872.09,-86.73 700.9,-86.92"/>
<polygon fill="#63b8ff" stroke="#63b8ff" points="1247.78,-198.18 1238.09,-202.48 1248.34,-205.16 1247.78,-198.18"/>
</a>
</g>
</g>
<!-- Node15&#45;&gt;Node14 -->
<g id="edge19_Node000015_Node000014" class="edge">
<title>Node15&#45;&gt;Node14</title>
<g id="a_edge19_Node000015_Node000014"><a xlink:title=" ">
<path fill="none" stroke="#63b8ff" d="M1118.68,-194.84C1056.53,-184.92 963.12,-170.01 901.89,-160.23"/>
<polygon fill="#63b8ff" stroke="#63b8ff" points="1117.99,-198.27 1128.41,-196.39 1119.09,-191.36 1117.99,-198.27"/>
</a>
</g>
</g>
<!-- Node16 -->
<g id="Node000016" class="node">
<title>Node16</title>
<g id="a_Node000016"><a xlink:href="ModelImpl_8cpp.html" target="_top" xlink:title=" ">
<polygon fill="white" stroke="#666666" points="1356.75,-159.75 1251.5,-159.75 1251.5,-139 1356.75,-139 1356.75,-159.75"/>
<text xml:space="preserve" text-anchor="middle" x="1304.12" y="-146.25" font-family="Helvetica,sans-Serif" font-size="10.00">src/ModelImpl.cpp</text>
</a>
</g>
</g>
<!-- Node15&#45;&gt;Node16 -->
<g id="edge17_Node000015_Node000016" class="edge">
<title>Node15&#45;&gt;Node16</title>
<g id="a_edge17_Node000015_Node000016"><a xlink:title=" ">
<path fill="none" stroke="#63b8ff" d="M1214.98,-190.71C1236.34,-181.05 1263.9,-168.58 1282.68,-160.08"/>
<polygon fill="#63b8ff" stroke="#63b8ff" points="1213.8,-187.4 1206.14,-194.71 1216.69,-193.78 1213.8,-187.4"/>
</a>
</g>
</g>
<!-- Node17&#45;&gt;Node6 -->
<g id="edge22_Node000017_Node000006" class="edge">
<title>Node17&#45;&gt;Node6</title>
<g id="a_edge22_Node000017_Node000006"><a xlink:title=" ">
<path fill="none" stroke="#63b8ff" d="M934.66,-184.3C933.17,-169.54 928.71,-150.41 916.12,-139 885.26,-111.01 773.89,-97.47 700.97,-91.47"/>
<polygon fill="#63b8ff" stroke="#63b8ff" points="931.14,-184.12 935.23,-193.89 938.13,-183.7 931.14,-184.12"/>
</a>
</g>
</g>
<!-- Node17&#45;&gt;Node13 -->
<g id="edge23_Node000017_Node000013" class="edge">
<title>Node17&#45;&gt;Node13</title>
<g id="a_edge23_Node000017_Node000013"><a xlink:title=" ">
<path fill="none" stroke="#63b8ff" d="M880.4,-192.8C836.75,-182.96 776.4,-169.36 735.91,-160.24"/>
<polygon fill="#63b8ff" stroke="#63b8ff" points="879.4,-196.16 889.92,-194.94 880.94,-189.33 879.4,-196.16"/>
</a>
</g>
</g>
<!-- Node17&#45;&gt;Node14 -->
<g id="edge24_Node000017_Node000014" class="edge">
<title>Node17&#45;&gt;Node14</title>
<g id="a_edge24_Node000017_Node000014"><a xlink:title=" ">
<path fill="none" stroke="#63b8ff" d="M908.49,-189.78C891.97,-180.25 871.24,-168.31 856.96,-160.08"/>
<polygon fill="#63b8ff" stroke="#63b8ff" points="906.42,-192.62 916.83,-194.58 909.91,-186.56 906.42,-192.62"/>
</a>
</g>
</g>
<!-- Node18 -->
<g id="Node000018" class="node">
<title>Node18</title>
<g id="a_Node000018"><a xlink:href="SystemImpl_8cpp.html" target="_top" xlink:title=" ">
<polygon fill="white" stroke="#666666" points="1075.12,-159.75 963.12,-159.75 963.12,-139 1075.12,-139 1075.12,-159.75"/>
<text xml:space="preserve" text-anchor="middle" x="1019.12" y="-146.25" font-family="Helvetica,sans-Serif" font-size="10.00">src/SystemImpl.cpp</text>
</a>
</g>
</g>
<!-- Node17&#45;&gt;Node18 -->
<g id="edge21_Node000017_Node000018" class="edge">
<title>Node17&#45;&gt;Node18</title>
<g id="a_edge21_Node000017_Node000018"><a xlink:title=" ">
<path fill="none" stroke="#63b8ff" d="M959.51,-189.23C973.98,-179.8 991.85,-168.15 1004.24,-160.08"/>
<polygon fill="#63b8ff" stroke="#63b8ff" points="957.88,-186.12 951.41,-194.51 961.7,-191.98 957.88,-186.12"/>
</a>
</g>
</g>
<!-- Node19 -->
<g id="Node000019" class="node">
<title>Node19</title>
<g id="a_Node000019"><a xlink:href="unit__System_8cpp.html" target="_top" xlink:title=" ">
<polygon fill="white" stroke="#666666" points="1233.38,-159.75 1092.88,-159.75 1092.88,-139 1233.38,-139 1233.38,-159.75"/>
<text xml:space="preserve" text-anchor="middle" x="1163.12" y="-146.25" font-family="Helvetica,sans-Serif" font-size="10.00">test/unit/unit_System.cpp</text>
</a>
</g>
</g>
<!-- Node17&#45;&gt;Node19 -->
<g id="edge25_Node000017_Node000019" class="edge">
<title>Node17&#45;&gt;Node19</title>
<g id="a_edge25_Node000017_Node000019"><a xlink:title=" ">
<path fill="none" stroke="#63b8ff" d="M987.25,-192.61C1028.15,-182.79 1084.29,-169.31 1122.05,-160.24"/>
<polygon fill="#63b8ff" stroke="#63b8ff" points="986.53,-189.18 977.62,-194.92 988.16,-195.99 986.53,-189.18"/>
</a>
</g>
</g>
</g>
</svg>
