<?xml version="1.0" encoding="UTF-8" standalone="no"?>
<!DOCTYPE svg PUBLIC "-//W3C//DTD SVG 1.1//EN"
 "http://www.w3.org/Graphics/SVG/1.1/DTD/svg11.dtd">
<!-- Generated by graphviz version 14.1.2 (0)
 -->
<!-- Title: test/unit/unit_Exponential.cpp Pages: 1 -->
<svg width="472pt" height="256pt"
 viewBox="0.00 0.00 472.00 256.00" xmlns="http://www.w3.org/2000/svg" xmlns:xlink="http://www.w3.org/1999/xlink">
<g id="graph0" class="graph" transform="scale(1 1) rotate(0) translate(4 251.75)">
<title>test/unit/unit_Exponential.cpp</title>
<!-- Node1 -->
<g id="Node000001" class="node">
<title>Node1</title>
<g id="a_Node000001"><a xlink:title=" ">
<polygon fill="#999999" stroke="#666666" points="297.12,-247.75 135.62,-247.75 135.62,-227 297.12,-227 297.12,-247.75"/>
<text xml:space="preserve" text-anchor="middle" x="216.38" y="-234.25" font-family="Helvetica,sans-Serif" font-size="10.00">test/unit/unit_Exponential.cpp</text>
</a>
</g>
</g>
<!-- Node2 -->
<g id="Node000002" class="node">
<title>Node2</title>
<g id="a_Node000002"><a xlink:href="unit__Exponential_8hpp.html" target="_top" xlink:title=" ">
<polygon fill="white" stroke="#666666" points="118.75,-191 0,-191 0,-170.25 118.75,-170.25 118.75,-191"/>
<text xml:space="preserve" text-anchor="middle" x="59.38" y="-177.5" font-family="Helvetica,sans-Serif" font-size="10.00">unit_Exponential.hpp</text>
</a>
</g>
</g>
<!-- Node1&#45;&gt;Node2 -->
<g id="edge1_Node000001_Node000002" class="edge">
<title>Node1&#45;&gt;Node2</title>
<g id="a_edge1_Node000001_Node000002"><a xlink:title=" ">
<path fill="none" stroke="#63b8ff" d="M188.31,-226.59C163.16,-217.82 126.03,-204.87 98.07,-195.12"/>
<polygon fill="#63b8ff" stroke="#63b8ff" points="99.49,-191.91 88.89,-191.92 97.18,-198.52 99.49,-191.91"/>
</a>
</g>
</g>
<!-- Node3 -->
<g id="Node000003" class="node">
<title>Node3</title>
<g id="a_Node000003"><a xlink:title=" ">
<polygon fill="#e0e0e0" stroke="#999999" points="188,-191 136.75,-191 136.75,-170.25 188,-170.25 188,-191"/>
<text xml:space="preserve" text-anchor="middle" x="162.38" y="-177.5" font-family="Helvetica,sans-Serif" font-size="10.00">cassert</text>
</a>
</g>
</g>
<!-- Node1&#45;&gt;Node3 -->
<g id="edge2_Node000001_Node000003" class="edge">
<title>Node1&#45;&gt;Node3</title>
<g id="a_edge2_Node000001_Node000003"><a xlink:title=" ">
<path fill="none" stroke="#63b8ff" d="M206.72,-226.59C199.27,-219.03 188.77,-208.39 179.85,-199.35"/>
<polygon fill="#63b8ff" stroke="#63b8ff" points="182.52,-197.07 173.01,-192.41 177.54,-201.98 182.52,-197.07"/>
</a>
</g>
</g>
<!-- Node4 -->
<g id="Node000004" class="node">
<title>Node4</title>
<g id="a_Node000004"><a xlink:href="Exponential_8hpp.html" target="_top" xlink:title="Declaração da classe Exponential.">
<polygon fill="white" stroke="#666666" points="336.38,-191 206.38,-191 206.38,-170.25 336.38,-170.25 336.38,-191"/>
<text xml:space="preserve" text-anchor="middle" x="271.38" y="-177.5" font-family="Helvetica,sans-Serif" font-size="10.00">../../src/Exponential.hpp</text>
</a>
</g>
</g>
<!-- Node1&#45;&gt;Node4 -->
<g id="edge3_Node000001_Node000004" class="edge">
<title>Node1&#45;&gt;Node4</title>
<g id="a_edge3_Node000001_Node000004"><a xlink:title=" ">
<path fill="none" stroke="#63b8ff" d="M226.21,-226.59C233.79,-219.03 244.49,-208.39 253.57,-199.35"/>
<polygon fill="#63b8ff" stroke="#63b8ff" points="255.94,-201.93 260.55,-192.4 251,-196.97 255.94,-201.93"/>
</a>
</g>
</g>
<!-- Node9 -->
<g id="Node000009" class="node">
<title>Node9</title>
<g id="a_Node000009"><a xlink:href="SystemImpl_8hpp.html" target="_top" xlink:title="Implementação concreta da interface System.">
<polygon fill="white" stroke="#666666" points="463.75,-134.25 333,-134.25 333,-113.5 463.75,-113.5 463.75,-134.25"/>
<text xml:space="preserve" text-anchor="middle" x="398.38" y="-120.75" font-family="Helvetica,sans-Serif" font-size="10.00">../../src/SystemImpl.hpp</text>
</a>
</g>
</g>
<!-- Node1&#45;&gt;Node9 -->
<g id="edge11_Node000001_Node000009" class="edge">
<title>Node1&#45;&gt;Node9</title>
<g id="a_edge11_Node000001_Node000009"><a xlink:title=" ">
<path fill="none" stroke="#63b8ff" d="M263.51,-226.54C289.34,-219.56 320.97,-208.3 345.38,-191 362.95,-178.54 377.76,-158.69 387.22,-143.99"/>
<polygon fill="#63b8ff" stroke="#63b8ff" points="390.09,-146.02 392.33,-135.66 384.12,-142.36 390.09,-146.02"/>
</a>
</g>
</g>
<!-- Node5 -->
<g id="Node000005" class="node">
<title>Node5</title>
<g id="a_Node000005"><a xlink:href="FlowImpl_8hpp.html" target="_top" xlink:title="Implementação concreta da interface Flow.">
<polygon fill="white" stroke="#666666" points="277.38,-134.25 195.38,-134.25 195.38,-113.5 277.38,-113.5 277.38,-134.25"/>
<text xml:space="preserve" text-anchor="middle" x="236.38" y="-120.75" font-family="Helvetica,sans-Serif" font-size="10.00">FlowImpl.hpp</text>
</a>
</g>
</g>
<!-- Node4&#45;&gt;Node5 -->
<g id="edge4_Node000004_Node000005" class="edge">
<title>Node4&#45;&gt;Node5</title>
<g id="a_edge4_Node000004_Node000005"><a xlink:title=" ">
<path fill="none" stroke="#63b8ff" d="M265.12,-169.84C260.54,-162.67 254.18,-152.73 248.61,-144.01"/>
<polygon fill="#63b8ff" stroke="#63b8ff" points="251.73,-142.39 243.39,-135.85 245.83,-146.16 251.73,-142.39"/>
</a>
</g>
</g>
<!-- Node7 -->
<g id="Node000007" class="node">
<title>Node7</title>
<g id="a_Node000007"><a xlink:title=" ">
<polygon fill="#e0e0e0" stroke="#999999" points="247.25,-20.75 203.5,-20.75 203.5,0 247.25,0 247.25,-20.75"/>
<text xml:space="preserve" text-anchor="middle" x="225.38" y="-7.25" font-family="Helvetica,sans-Serif" font-size="10.00">string</text>
</a>
</g>
</g>
<!-- Node4&#45;&gt;Node7 -->
<g id="edge10_Node000004_Node000007" class="edge">
<title>Node4&#45;&gt;Node7</title>
<g id="a_edge10_Node000004_Node000007"><a xlink:title=" ">
<path fill="none" stroke="#63b8ff" d="M234.96,-169.9C216.99,-163.06 196.96,-151.9 186.38,-134.25 168.66,-104.71 174.4,-89.05 186.38,-56.75 190.3,-46.16 197.92,-36.39 205.39,-28.64"/>
<polygon fill="#63b8ff" stroke="#63b8ff" points="207.38,-31.59 212.17,-22.14 202.53,-26.54 207.38,-31.59"/>
</a>
</g>
</g>
<!-- Node8 -->
<g id="Node000008" class="node">
<title>Node8</title>
<g id="a_Node000008"><a xlink:href="System_8hpp.html" target="_top" xlink:title="Interface abstrata que representa um sistema do simulador.">
<polygon fill="white" stroke="#666666" points="347.25,-77.5 273.5,-77.5 273.5,-56.75 347.25,-56.75 347.25,-77.5"/>
<text xml:space="preserve" text-anchor="middle" x="310.38" y="-64" font-family="Helvetica,sans-Serif" font-size="10.00">System.hpp</text>
</a>
</g>
</g>
<!-- Node4&#45;&gt;Node8 -->
<g id="edge9_Node000004_Node000008" class="edge">
<title>Node4&#45;&gt;Node8</title>
<g id="a_edge9_Node000004_Node000008"><a xlink:title=" ">
<path fill="none" stroke="#63b8ff" d="M274.7,-170.12C280.97,-152.19 294.68,-113 303.16,-88.76"/>
<polygon fill="#63b8ff" stroke="#63b8ff" points="306.45,-89.95 306.45,-79.35 299.84,-87.64 306.45,-89.95"/>
</a>
</g>
</g>
<!-- Node6 -->
<g id="Node000006" class="node">
<title>Node6</title>
<g id="a_Node000006"><a xlink:href="Flow_8hpp.html" target="_top" xlink:title="Interface abstrata que representa um fluxo entre sistemas.">
<polygon fill="white" stroke="#666666" points="255.12,-77.5 195.62,-77.5 195.62,-56.75 255.12,-56.75 255.12,-77.5"/>
<text xml:space="preserve" text-anchor="middle" x="225.38" y="-64" font-family="Helvetica,sans-Serif" font-size="10.00">Flow.hpp</text>
</a>
</g>
</g>
<!-- Node5&#45;&gt;Node6 -->
<g id="edge5_Node000005_Node000006" class="edge">
<title>Node5&#45;&gt;Node6</title>
<g id="a_edge5_Node000005_Node000006"><a xlink:title=" ">
<path fill="none" stroke="#63b8ff" d="M234.41,-113.09C233.06,-106.39 231.23,-97.26 229.56,-88.98"/>
<polygon fill="#63b8ff" stroke="#63b8ff" points="233.02,-88.43 227.62,-79.31 226.16,-89.81 233.02,-88.43"/>
</a>
</g>
</g>
<!-- Node5&#45;&gt;Node8 -->
<g id="edge7_Node000005_Node000008" class="edge">
<title>Node5&#45;&gt;Node8</title>
<g id="a_edge7_Node000005_Node000008"><a xlink:title=" ">
<path fill="none" stroke="#63b8ff" d="M249.6,-113.09C260.34,-105.15 275.7,-93.78 288.29,-84.46"/>
<polygon fill="#63b8ff" stroke="#63b8ff" points="290.09,-87.49 296.04,-78.73 285.92,-81.86 290.09,-87.49"/>
</a>
</g>
</g>
<!-- Node6&#45;&gt;Node7 -->
<g id="edge6_Node000006_Node000007" class="edge">
<title>Node6&#45;&gt;Node7</title>
<g id="a_edge6_Node000006_Node000007"><a xlink:title=" ">
<path fill="none" stroke="#63b8ff" d="M225.38,-56.34C225.38,-49.72 225.38,-40.72 225.38,-32.52"/>
<polygon fill="#63b8ff" stroke="#63b8ff" points="228.88,-32.59 225.38,-22.59 221.88,-32.59 228.88,-32.59"/>
</a>
</g>
</g>
<!-- Node8&#45;&gt;Node7 -->
<g id="edge8_Node000008_Node000007" class="edge">
<title>Node8&#45;&gt;Node7</title>
<g id="a_edge8_Node000008_Node000007"><a xlink:title=" ">
<path fill="none" stroke="#63b8ff" d="M295.18,-56.34C282.61,-48.24 264.51,-36.58 249.89,-27.17"/>
<polygon fill="#63b8ff" stroke="#63b8ff" points="252.01,-24.37 241.71,-21.9 248.22,-30.26 252.01,-24.37"/>
</a>
</g>
</g>
<!-- Node9&#45;&gt;Node8 -->
<g id="edge12_Node000009_Node000008" class="edge">
<title>Node9&#45;&gt;Node8</title>
<g id="a_edge12_Node000009_Node000008"><a xlink:title=" ">
<path fill="none" stroke="#63b8ff" d="M382.64,-113.09C369.5,-104.91 350.53,-93.11 335.32,-83.65"/>
<polygon fill="#63b8ff" stroke="#63b8ff" points="337.6,-80.94 327.26,-78.63 333.9,-86.88 337.6,-80.94"/>
</a>
</g>
</g>
</g>
</svg>
